<?xml version="1.0" encoding="UTF-8"?>
<svg version="1.1" viewBox="0 0 2000 2000" width="2000" height="2000" xmlns="http://www.w3.org/2000/svg">
<path transform="translate(0)" d="m0 0h2e3v2e3h-2e3z" fill="#EFECE4"/>
<path transform="translate(733,399)" d="m0 0h13l34 2 30 4 14 3 11 2 29 8 32 11 13 6 16 7 19 10 8 4 1 5-11 31-7 20-7 19-10 27-11 30-10 28-2 9 5 4v2l5 2 10 9 11 8 8 6v2l5 2v2l5 2v2l4 2 10 8 14 11 2 1v2l4 2 3 2v2l5 2 12 10 2 1v2l4 2 7 5v2l5 2 5 4v2l4 2 14 11 9 7v2l5 2 3 2v2l4 2 5 4-2 4-17 17h-2l-2 4-10 9-4 4h-2v2h-2l-2 4h-2v2h-2v2h-2v2l-8 7-9 9-8 7-5 5h-2l-2 4-4 4h-2v2l-5 4-1 2h-2v2h-2v2l-8 7-5 5h-2v5l10 17 9 15 6 11 10 18 20 35 9 16 13 23 10 17 11 20 12 20v3h2l-9-29-10-35-5-16-7-24-13-44-7-23v-6l8-7h2v-2h2l2-4h2v-2l11-9 7-7h2v-2l8-7 12-11h2v-2h2v-2l11-9 7-7h2v-2h2v-2h2v-2l8-7 10-9h2v-2l8-7 10-9h2v-2h2v-2l8-7 12-11h2v-2l8-7 10-9 4-3-1-4-8-8-6-5-35-35-2-1v-2h-2v-2h-2l-4-4v-2h-2v-2l-4-2v-2h-2v-2h-2v-2l-4-2v-2l-4-2-4-4v-2l-4-2-32-32-5-4-18-18 1-4 11-12 1-2h2l2-4 8-10h2l2-4 9-10 1-2h2v-2h2l2-4 9-10 7-8 8-10h2l2-4 8-10h2l2-4 11-12 7-8 3-4h2l3-6h2l2-4 9-10 1-2h2l2-4 4-5h2l2-4 10-11 1-2h2l2-4 5-5 23-7 27-6 36-5 35-2 33 1 28 3 32 6 25 7 15 5 16 6 11 5 16 8 16 9 24 16 9 7 13 11 8 7 19 19 7 8 8 10 9 13v2h2l14 23 6 11 8 18 5 11 8 23 4 14 4 17 4 21 3 24 1 14v50l-4 32-5 21-5 19-4 11-4 13-7 18-12 27-10 19-11 21-18 30-5 7-4 7-10 14-2 4 2 1 2 5 3 3 6 11 1 3h2l3 10 5 8 7 14 4 13 1 5v13l12 8 13 12 2 4 3 1 10 13 7 12 7 15 5 17 6 31 7 44 6 38 22 154 7 50 6 45 5 36v10l-8 1 1 52 6 2 11 9 3 2v2h2v2l-12 3v5l1 1 20-2 6 5-3 2-9 3 1 5 9-1 8-2 6 1v3l-9 3 1 5 9-1 9-2 5 1 1 2-10 2v6h8l16-4 5 2-1 2-11 3-1 6 9-1 12-3 3-2 5 2v2l-10 3-1 4 1 1h8l12-3 5-1 17 8 16 12 7 8 5 10v14l-1 3-6 1h-22l-51-1-21-1v18l-2 2-133-1-53-1h-50l-7-1-3-3-1-3v-28l2-16 3-22 3-16 4-26 4-4 3-1v-5l-3-8-5-25-13-1-2-6-7-23-4-15-6-15-8-24-8-19h-2l-14 21-6 8-10 13-15 16-16 14-14 9-15 7-11 4-18 4-13 2h-40l-13 8-14 6-10 3-12 3-15 2-13 1h-16l-25-3-18-5-20-7-19-9-4-3-7-4-13-9-16-13-10-10-7-8 2-6 13-30 11-23 32-64 8-15 7-14 12-21 1-3-20-4-16-6-13-8-12-11-7-10-6-13-3-12-1-7v-57l2-25 2-23h2v-15l1-2 2-17 5-30 3-20 1-2h9l106 15-1 13-11 68-6 44-2 16h12l19-1 8-11 11-16 9-13 8-10 13-17 9-10 9-11 12-13 3-4h2l2-4 8-8 8-7 3-3h2l1-3 14-11 11-8 8-6 15-8 16-6 16-5 20-3h11l21 3 6-1 10-7 11-6-2-5-9-21-5-14-10-25-4-11-5-13-5-12-5-13-6-15-5-14-3-7-2-6-2-1 2-5 6-7 4-11v-13l-4-9-7-8-3-1 1 5 6 7 3 8v11l-4 10-4 4-5-1-3 6-5 2h-11l-8-3-9-8-3-3h-3l6 9 8 6 10 3h13v14l3 12 6 8 5 6 2 5h2l6 11 6 16 1 8-4-5-8-11-7-8-11-9-10-7-16-9-13-8-19-10-3-1-3 13-4 4-9 3-6 1h-19l-16-4-12-5-11-7-12-11-6-8-2-4v-6l5-9-7-1-19-3h-18l-29 1-18 2-20 6-17 8-10 8-2 3h-2l-2 5-10 19-4 12-7 14-7 20-9 30-6 26-5 24-2 17v13l11 2v8l-6 31-9 34-8 37-6 38-4 37-2 32v64l2 32 5 42v6l-14 10-12 8-5-1-11-7v-2l-5-2-5-3 2-14 2-10 3-30 1-21v-32l-1-28-3-36-4-39-2-17 6-10 6-16 3-14v-16l-3-24-8-32-9-28-7-19-6-16-11-27-6-13-5-11-9-29-6-15-7-16-13-26-10-15-12-16-9-10-5-6-2-1v-2l-5-2-14-10-12-7-18-6-12-2h-16l-16 3-10 3-3 5h-2l-1 9-6 31-7 26-8 22-8 17-7 12-9 12-9 10-13 9-12 5-12 2-15-1-11-6-6-7-5-10-3-11-1-8v-27l3-22 1-14 2-7v-6l1-2-12 3-12 6-13 10-9 9-9 13-9 7-10 11-9 11-5 6h-2l-2 4-8 9h-2l-2 4-28 28h-2v2l-4-1-14-19-10-14-7-11-14-21-13-22-13-23-15-30-16-38-9-28-8-33-4-27-1-13v-43l3-32 4-24 5-21 5-17 6-18 9-21 8-16 12-21 12-17 10-13 1-2h2l2-4 12-13 16-16 11-9 14-11 15-10 18-11 21-11 21-9 36-12 27-6 24-4 21-2z" fill="#D2CEC4"/>
<path transform="translate(1371,678)" d="m0 0h21l16 3 15 5 9 5 7 4v2l4 2 11 9 11 12v2h2l4 6v2h2l5 9 4 8 5 13 3 16v24l-4 20-5 11-4 16-8 17-4 8 6 8 4 6 9 12 8 11 4 5 8 11v3l3 1 9 12v3l3 1 4 6 10 14 14 20 8 12 9 12 5 10 7 10 7 11 8 14 6 12 4 13 1 5v13l12 8 13 12 2 4 3 1 10 13 7 12 7 15 5 17 6 31 7 44 6 38 22 154 7 50 6 45 5 36v10l-8 1 1 52 6 2 11 9 3 2v2h2v2l-12 3v5l1 1 20-2 6 5-3 2-9 3 1 5 9-1 8-2 6 1v3l-9 3 1 5 9-1 9-2 5 1 1 2-10 2v6h8l16-4 5 2-1 2-11 3-1 6 9-1 12-3 3-2 5 2v2l-10 3-1 4 1 1h8l12-3 5-1 17 8 16 12 7 8 5 10v14l-1 3-6 1h-22l-51-1-21-1v18l-2 2-133-1-53-1h-50l-7-1-3-3-1-3v-28l2-16 3-22 3-16 4-26 4-4 3-1v-5l-3-8-5-25-13-1-2-6-7-23-4-15-6-15-8-24-8-19h-2l-14 21-6 8-10 13-15 16-16 14-14 9-15 7-11 4-18 4-13 2h-40l-13 8-14 6-10 3-12 3-15 2-13 1h-16l-25-3-18-5-20-7-19-9-4-3-7-4-13-9-16-13-10-10-7-8 2-6 13-30 11-23 32-64 8-15 7-14 12-21 1-3-20-4-16-6-13-8-12-11-7-10-6-13-3-12-1-7v-57l2-25 2-23h2v-15l1-2 2-17 5-30 3-20 1-2h9l106 15-1 13-11 68-6 44-2 16h12l19-1 8-11 11-16 9-13 8-10 13-17 9-10 9-11 12-13 3-4h2l2-4 8-8 8-7 3-3h2l1-3 14-11 11-8 8-6 15-8 16-6 16-5 20-3h11l21 3 6-1 10-7 11-6-2-5-9-21-5-14-10-25-4-11-5-13-5-12-5-13-6-15-5-14-3-7-2-6-2-1 2-5 6-7 4-11v-13l-4-9-7-8-3-1 1 5 6 7 3 8v11l-4 10-4 4-5-1-3 6-5 2h-11l-8-3-9-8-3-3h-3l6 9 8 6 10 3h13v14l3 12 6 8 5 6 2 5h2l6 11 6 16 1 8-4-5-8-11-7-8-11-9-10-7-16-9-13-8-19-10-3-1-3 13-4 4-9 3-6 1h-19l-16-4-12-5-11-7-12-11-6-8-2-4v-6l5-9-7-1-19-3h-18l-29 1-18 2-20 6-17 8-10 8-2 3h-2l-2 5-10 19-4 12-7 14-7 20-9 30-6 26-4 21-2 2-9-14-5-11-4-11-3-14v-30l4-16 4-10 9-14 20-20 8-7h2l1-3 8-6h2v-2l9-6 16-12h3v-2l12-7 7-5 11-6 15-10h2v-2l7-4 14-12 5-6 5-5 9-12 6-11 7-14 6-14 10-32 7-19 11-22 5-8 9-12 7-8h2v-2l13-10 14-7 13-4 23-5z" fill="#B6844B"/>
<path transform="translate(816,874)" d="m0 0h16l16 3 14 5 17 10 9 7 5 3v2l4 2 11 12 9 12 11 16 7 11 11 23 9 21 11 33 4 10 7 17 6 13 9 23 7 18 9 27 6 21 5 21 3 24v16l-4 18-6 14-5 8 3 27 4 37 2 28 1 28v32l-2 32-3 24-3 16-1 3 5 2 5 3v2l5 2 7 5 5-1 11-7 12-9h2l-4-29-2-19-2-32v-64l2-32 4-37 6-38 6-29 12-46 5-27 1-8-11-1-1-1v-13l2-17 5-24 6-26 9-30 7-20 8-17 5-13 8-15 3-5h2l2-4 10-8 17-8 20-6 18-2 29-1h18l19 3 7 2-1 4-3 5v6l6 10 9 9 10 7 14 7 14 4 5 1h19l12-3 5-2 5-15 5 1 21 11 14 9 16 9 11 9 8 7 9 11 6 9-3-12-5-12-4-6v-3h-2l-3-5v-2l-3-1-6-8-4-9-1-6v-8l1-6-4 1h-9l-10-3-8-6-6-8v-2l4-1 8 9 7 4 4 1h11l5-1 2-6 2-2v2l5-1 5-8 1-4v-11l-4-10-6-6 1-4 4 1 8 9 3 8v13l-4 11-8 10-1 2 4 2 3 10 4 9 3 9 10 26 11 28 5 12 10 27 5 12 5 13 4 7-2 4-13 7-9 6-9-1-16-2h-11l-20 3-16 5-12 4-19 10-8 6-11 8-14 11-12 12-8 7-4 5-5 5-14 15-9 11-10 12-9 12-8 10-7 10-13 19-9 12-24 1-7-1 1-16 8-57 11-68-14-1-92-13-9-1-6 42-3 16-1 11-1 2-1 15h-2v10l-2 30-1 8v57l3 16 5 12 6 10 9 10 11 8 14 7 17 5 12 2 1 2-12 22-5 9-3 6-10 19-12 23-11 23-8 16-8 17-5 11-12 27h-3l-2-4-12 1-28 7-18 7-6-1-13-6-19-6-4-1-2 4-2 3h-2v2h-2l-2 4-12 11-16 10-8 4-2-1 10-10-1-6-11-28-16-38-15-33-13-28-8-17-1-5-3-3-18-36-12-22-15-28-14-24-10-17-10-16-20-5v-2l-8-1-44-12-46-14-49-16-53-19-13-7-6-5 2-1 15 5 13-11 9-9 9-14 5-13 1-6v-15l-4-7-7-22v-2l12 2 36 13 21 7-15-10-21-11-24-8-13-3-6-9-5-4-10-2-15-1-11-4-5-1-28-1-11-3-10-3 5-5 15-14h2v-2h2v-2h2v-2h2v-2h3l2-4h2v-3l8-7 23-23 7-8 6-7h2l2-4 10-11 9-11 10-9 4-4 8-11 10-10 13-9 10-5 6-2h6v8l-2 7-2 20-2 16v27l2 11 4 13 7 10 8 5 4 2 15 1 12-2 12-5 10-7 8-7 10-13 6-9 8-16 8-20 7-23 6-26 5-26 3-2 2-4 18-5z" fill="#FDFDFD"/>
<path transform="translate(456,1073)" d="m0 0h25l15 3 13 4h11l19 1 13 4 3 1 21 2 7 3 6 7 2 4 20 5 19 7 21 11 14 10-2 1-43-15-17-6-8-2 9 26 3 5v15l-3 12-7 14-8 10-11 11-9 7-16-5 10 7 11 5 53 19 65 21 41 12 38 10v2l13 2 7 2 9 14 13 22 11 19 16 29 12 23 10 19 9 18v2l3 1 3 9 17 36 16 36 13 30 16 40-1 5-9 9-8 7-13 10-19 12-19 10-24 9-20 5-23 3h-24l-17-2-19-4-18-6-16-8-10-7h-26l-19-2-23-5-16-6-15-8-14-10-15-14-13-14-9-12-14-21-10-17-8 16-16 39-10 29-7 21-18-1-5-1-34-3-48-5 1-11 8-40-4 10-7 23-1 1-13-1-11-2-21-3-16-3-16-2-11-2-7-1-1-5 4-22v-7l2-5 23-131 21-115 8-42 1-3 20 8 9 2h11l5-1v-9l-4-2-7-8-3-4 9 3 12 3h12l5-2 1-8v-3l-4-2-5-3v-2l-7-2-5-2v-1h28l6-4v-5l-4-6-17-12-3-1v-2l12 2h10l5-3 1-2v-6l-12-10-6-3-10-6-19-9-12-1 2-9 6-9 5-11 3-8 14-15 13-10 13-8 15-6z" fill="#306E69"/>
<path transform="translate(1319,399)" d="m0 0 33 1 28 3 32 6 25 7 15 5 16 6 11 5 16 8 16 9 24 16 9 7 13 11 8 7 19 19 7 8 8 10 9 13v2h2l14 23 6 11 8 18 5 11 8 23 4 14 4 17 4 21 3 24 1 14v50l-4 32-5 21-5 19-4 11-4 13-7 18-12 27-10 19-11 21-18 30-5 7-4 7-10 14-2 4 2 1 2 5 3 3 6 11 1 3h2l2 7-4-4-9-14-7-11-4-7-8-11-13-19-10-14-8-11-3-5-2-1-4-7-6-8-2-1-5-9-4-5v-2l-3-1-6-9-12-16-8-11-2-3 11-23 4-13 3-9 4-11 3-16v-24l-4-19-7-17-5-7v-3h-2l-4-6v-2h-2l-9-11-11-10-6-4v-2l-6-2-5-3-8-4-15-5-13-2h-21l-19 3-22 6-12 5-13 9-3 3h-2v2l-5 5-8 9-7 10-11 22-7 17-10 32-6 16-7 14-6 11-7 11-8 10-5 5-12 11-8 6h-3v2l-16 10-9 6-9 5-11 7h-2v2l-7 4-17 13-4 1v2l-10 7-5 5-3 1-1 3-8 7-14 14-9 15-6 18-1 6v30l1 9-3-3-12-42-5-16-7-24-13-44-7-23v-6l8-7h2v-2h2l2-4h2v-2l11-9 7-7h2v-2l8-7 12-11h2v-2h2v-2l11-9 7-7h2v-2h2v-2h2v-2l8-7 10-9h2v-2l8-7 10-9h2v-2h2v-2l8-7 12-11h2v-2l8-7 10-9 4-3-1-4-8-8-6-5-35-35-2-1v-2h-2v-2h-2l-4-4v-2h-2v-2l-4-2v-2h-2v-2h-2v-2l-4-2v-2l-4-2-4-4v-2l-4-2-32-32-5-4-18-18 1-4 11-12 1-2h2l2-4 8-10h2l2-4 9-10 1-2h2v-2h2l2-4 9-10 7-8 8-10h2l2-4 8-10h2l2-4 11-12 7-8 3-4h2l3-6h2l2-4 9-10 1-2h2l2-4 4-5h2l2-4 10-11 1-2h2l2-4 5-5 23-7 27-6 36-5z" fill="#D2CEC4"/>
<path transform="translate(1485,1516)" d="m0 0 3 4 9 23 8 24 5 12 7 25 4 15 13 1 2 4 2 12 4 17 1 1v5l-6 2-3 14-4 28-3 17-3 24v28l3 5 9 1h48l53 1 133 1 1-1 1-18h21l54 1h25v-17l-5-10-9-10-11-7-5-3-14-7-5 1-12 3h-8l-2-4 2-3 10-2v-2l-6-1-5 3h-3l1-3 5-2 2-4 32 8 28 10 17 9 12 9v2l4 2 6 10 1 3v15l-5 10-13 9-14 6-15 5-28 6-36 5-34 3-47 2h-51l-51-2-36-3-33-4-24-5-10-3-14-8-6-5-7-12-2-6-3-30-3-9-3-4v-2l-4-2-8-3-11-2h-20l-37 3-32 1h-28l-42-1-82-5-45-4-99-9-27-3-23-5-7 1-23 5-40 4-120 11-72 5-48 2h-72l-27-1-21-2h-33l-9 2-9 4-1 2h-2v2h-2l-1 5-2 7-2 23-4 16-5 9h-2l-2 4-6 5-16 8-19 5-25 4-28 3-38 3-58 2h-26l-39-1-35-2-40-4-28-4-33-8-20-8-13-8-6-7-3-7v-15l5-10 9-10 12-8 15-8 16-6 11-8 14-8 9-4 16 4 7 1 2-1v-5l-10-4 2-2 5 1 15 4h7l-2-7-10-3 4-3 11 3 12 2 2-7-12-3 4-3 17 4h5l1-5v-2l-10-2 4-4 16 4h6v-7l-12-3 5-6 9 1 11 2h2v-6l-12-4v-2l11-9 7-5 3-1h7l1-18 2-17 34 5 16 3 16 2 10 2h6l9-29 4-11 1 4-6 28-5 26h10l58 6 14 1 23 3 3-12 9-27 14-36 13-29 2-2 14 23 11 16 11 14 14 15 12 11 16 11 19 9 21 6 17 3 13 1h26l15 10 19 8 23 6 12 2 11 1h24l23-3 23-6 25-10 17-9 21-14 11-9 5-4 6-2 14-8 9-7 10-9 1-2h2v-2h2l2-4 2-3 8 1 20 7 11 5 6-1 15-6 28-7 12-1 2 5h2l6 8 8 8v2l4 2 11 9 21 15 6 3 17 9 20 7 5 2 8 2 14 3 19 2h16l21-2 15-3 9-2 12-5 14-7 6-4h40l24-4 16-5 16-7 10-7 11-8 6-5 5-5 15-16 8-11 4-5 17-25z" fill="#D3CFC5"/>
<path transform="translate(1371,678)" d="m0 0h21l16 3 15 5 9 5 7 4v2l4 2 11 9 11 12v2h2l4 6v2h2l5 9 4 8 5 13 3 16v24l-4 20-5 11-4 16-8 17-4 8 6 8 4 6 9 12 8 11 4 5 8 11v3l3 1 9 12v3l3 1 4 6 10 14 14 20 8 12 9 12 5 10 7 10 7 11 8 14 6 12 4 13 1 5v13l12 8 13 12 2 4 3 1 10 13 7 12 7 15 5 17 6 31 7 44 6 38 22 154 7 50 6 45 5 36v10l-32 4-38 4-21 3-3-1-8-29-5-19-7-45-5-29-4-25v-9l-3-9-6-40-7-40-6-36v-8l1-3v-8l-4-5-1-2v-18l-5-6-3-2v-2h-2l-2-4-1-12-4-5-18-8-19-3-15-5h-11l-5 3-4 2v2l-5 4-1 2h-2v2h-2l-2 4-9 10-11 3-2-1h-11l-5 2-1 2-14 2-17 3-35 5-25 4-20 3-15 2-33 4-39 3 1-4 11-15 10-15 7-9 6-8 13-17 9-10 9-11 12-13 3-4h2l2-4 8-8 8-7 3-3h2l1-3 14-11 11-8 8-6 15-8 16-6 16-5 20-3h11l21 3 6-1 10-7 11-6-2-5-9-21-5-14-10-25-4-11-5-13-5-12-5-13-6-15-5-14-3-7-2-6-2-1 2-5 6-7 4-11v-13l-4-9-7-8-3-1 1 5 6 7 3 8v11l-4 10-4 4-5-1-3 6-5 2h-11l-8-3-9-8-3-3h-3l6 9 8 6 10 3h13v14l3 12 6 8 5 6 2 5h2l6 11 6 16 1 8-4-5-8-11-7-8-11-9-10-7-16-9-13-8-19-10-3-1-3 13-4 4-9 3-6 1h-19l-16-4-12-5-11-7-12-11-6-8-2-4v-6l5-9-7-1-19-3h-18l-29 1-18 2-20 6-17 8-10 8-2 3h-2l-2 5-10 19-4 12-7 14-7 20-9 30-6 26-4 21-2 2-9-14-5-11-4-11-3-14v-30l4-16 4-10 9-14 20-20 8-7h2l1-3 8-6h2v-2l9-6 16-12h3v-2l12-7 7-5 11-6 15-10h2v-2l7-4 14-12 5-6 5-5 9-12 6-11 7-14 6-14 10-32 7-19 11-22 5-8 9-12 7-8h2v-2l13-10 14-7 13-4 23-5z" fill="#976436"/>
<path transform="translate(1434,886)" d="m0 0 4 1 8 9 3 8v13l-4 11-8 10-1 2 4 2 3 10 4 9 3 9 10 26 11 28 5 12 10 27 5 12 5 13 4 7-2 4-13 7-9 6-9-1-16-2h-11l-20 3-16 5-12 4-19 10-8 6-11 8-14 11-12 12-8 7-4 5-5 5-14 15-9 11-10 12-9 12-8 10-7 10-13 19-9 12-24 1-7-1 1-16 8-57 11-68-14-1-92-13-9-1-6 42-3 16-1 11-1 2-1 15h-2v10l-2 30-1 8v57l3 16 5 12 6 10 9 10 11 8 14 7 17 5 12 2 1 2-12 22-5 9-3 6-10 19-12 23-11 23-8 16-8 17-5 11-6 13-3 3-4 8h-2l-2-3-4-16-3-11-5-25-4-25-1-1-5-42-2-32v-64l2-32 4-37 6-38 6-29 12-46 5-27 1-8-11-1-1-1v-13l2-17 5-24 6-26 9-30 7-20 8-17 5-13 8-15 3-5h2l2-4 10-8 17-8 20-6 18-2 29-1h18l19 3 7 2-1 4-3 5v6l6 10 9 9 10 7 14 7 14 4 5 1h19l12-3 5-2 5-15 5 1 21 11 14 9 16 9 11 9 8 7 9 11 6 9-3-12-5-12-4-6v-3h-2l-3-5v-2l-3-1-6-8-4-9-1-6v-8l1-6-4 1h-9l-10-3-8-6-6-8v-2l4-1 8 9 7 4 4 1h11l5-1 2-6 2-2v2l5-1 5-8 1-4v-11l-4-10-6-6z" fill="#FDFDFD"/>
<path transform="translate(1371,678)" d="m0 0h21l16 3 15 5 9 5 7 4v2l4 2 11 9 11 12v2h2l4 6v2h2l5 9 4 8 5 13 3 16v24l-4 20-5 11-4 16-8 17-4 8 6 8 4 6 9 12 8 11 4 5 8 11v3l3 1 9 12v3l3 1 4 6 10 14 14 20 8 12 9 12 5 10 7 10 7 11 8 14 6 12 4 13 1 5v12l-2 1-13-6-13-4-20-2-18 1-17 4-15 6h-3v2l-2-1-2-5-9-21-5-14-10-25-4-11-5-13-5-12-5-13-6-15-5-14-3-7-2-6-2-1 2-5 6-7 4-11v-13l-4-9-7-8-3-1 1 5 6 7 3 8v11l-4 10-4 4-5-1-3 6-5 2h-11l-8-3-9-8-3-3h-3l6 9 8 6 10 3h13v14l3 12 6 8 5 6 2 5h2l6 11 6 16 1 8-4-5-8-11-7-8-11-9-10-7-16-9-13-8-19-10-3-1-3 13-4 4-9 3-6 1h-19l-16-4-12-5-11-7-12-11-6-8-2-4v-6l5-9-7-1-19-3h-18l-29 1-18 2-20 6-17 8-10 8-2 3h-2l-2 5-10 19-4 12-7 14-7 20-9 30-6 26-4 21-2 2-9-14-5-11-4-11-3-14v-30l4-16 4-10 9-14 20-20 8-7h2l1-3 8-6h2v-2l9-6 16-12h3v-2l12-7 7-5 11-6 15-10h2v-2l7-4 14-12 5-6 5-5 9-12 6-11 7-14 6-14 10-32 7-19 11-22 5-8 9-12 7-8h2v-2l13-10 14-7 13-4 23-5z" fill="#ED9264"/>
<path transform="translate(1106,1130)" d="m0 0h9l106 15-1 13-11 68-6 44-2 16h12l24-1 43-4 25-3 56-8 31-5 20-3 16-3 4-1 5-3h11l3 1 10-3 10-11 1-2h2v-2h2l2-4 4-2v-2l6-5 3-1h11l15 5 19 3 18 8 5 6 1 12 1 4h2l5 5 4 5v18l4 6 1 1v8l-3 7h-2l-2 4-5 3-16 4-18 2h-65l-3 3-5 2-16 2-6 3-20 7-46 15-29 9-31 8-38 9-22 4-19 3-16 2-19 1h-14l-16-1-20-4-16-6-13-8-12-11-7-10-6-13-3-12-1-7v-57l2-25 2-23h2v-15l1-2 2-17 5-30 3-20z" fill="#EE9264"/>
<path transform="translate(456,1073)" d="m0 0h25l15 3 12 4-7 7-6 12-14 4-5 3-4 10-4 9h-2v2l-4 2h-3v2l-3 3v11l1 7 5 7v2l5 2 7 6-3 9-6 17-8 34-10 49-7 32-10 47-6 31-7 36-8 37-6 31-9 46-3 16-12 36-3 8-13-1-11-2-21-3-16-3-16-2-11-2-7-1-1-5 4-22v-7l2-5 23-131 21-115 8-42 1-3 20 8 9 2h11l5-1v-9l-4-2-7-8-3-4 9 3 12 3h12l5-2 1-8v-3l-4-2-5-3v-2l-7-2-5-2v-1h28l6-4v-5l-4-6-17-12-3-1v-2l12 2h10l5-3 1-2v-6l-12-10-6-3-10-6-19-9-12-1 2-9 6-9 5-11 3-8 14-15 13-10 13-8 15-6z" fill="#1A433F"/>
<path transform="translate(1616,1563)" d="m0 0 2 2 6 20 2 8v4l12-1 21-3 44-5h9l1 52 6 2 11 9 3 2v2h2v2l-12 3v5l1 1 20-2 6 5-3 2-9 3 1 5 9-1 8-2 6 1v3l-9 3 1 5 9-1 9-2 5 1 1 2-10 2v6h8l16-4 5 2-1 2-11 3-1 6 9-1 12-3 3-2 5 2v2l-10 3-1 4 1 1h8l12-3 5-1 17 8 16 12 7 8 5 10v14l-1 3-6 1h-22l-51-1-21-1v18l-2 2-133-1-53-1h-50l-7-1-3-3-1-3v-28l2-16 3-22 3-16 4-26 4-4 3-1v-5l-3-8-5-25-11-1v-1l89-6h9l2-1-2-15-4-23z" fill="#EE7659"/>
<path transform="translate(663,649)" d="m0 0h21l12 3 10 6 7 7 3 5 15 1 11 4 7 7 4 9 1 5v22l-2 10v6l5 5 7 9 3 9 1 6v25l-5 12-7 8-4 3h-5l3 17 3 9 4 11 6 21 2 4 2 8 1 3v10l-7 8-11 10-16 10-14 5-16 3h-18l-11-3-2-4-3-16v-4h-13l-13-2-10-4-8-7-8-14-5-15-4-19-2-11-3-7-6-21-4-12-1-7-3-9-2-7v-4l-6-1-17-7-12-6-7-7-1-4 3-5 6-4 12-3-2-4-11-11-7-9-1-7 5-3 4-1 17-1-12-12-3-6v-6l3-2h12l13 3 9 4 4-1 27-11 21-7z" fill="#ED9164"/>
<path transform="translate(284,1620)" d="m0 0h9l16 5 11 4 7 1h12l10-4 4-3h7l3 3 2 5 2 19 1 11 16-12 4-1h7l32 10 5 1h7l9-2 8-6h6l5 5 1 4 2 19 7 45 1 8 1 26-2 10-1 3-84 1h-168l-2-6v-8l5-12 2-3-27 1h-80l-3-8 1-9 4-8 9-10 9-7 15-9 11-5 16 4 7 1 2-1v-5l-10-4 2-2 5 1 15 4h7l-2-7-10-3 4-3 11 3 12 2 2-7-12-3 4-3 17 4h5l1-5v-2l-10-2 4-4 16 4h6v-7l-12-3 5-6 9 1 11 2h2v-6l-12-4v-2l11-9 7-5z" fill="#5B7D96"/>
<path transform="translate(1440,1108)" d="m0 0h11l21 3h5l1 2 11 4 8 4 7 4v2l5 2 9 7v2h2l7 8 7 9 7 11 8 16 6 18 6 29 5 29 1 8-4-2v-2h-2l-2-4-1-12-4-5-18-8-19-3-15-5h-11l-5 3-4 2v2l-5 4-1 2h-2v2h-2l-2 4-9 10-11 3-2-1h-11l-5 2-1 2-14 2-17 3-35 5-25 4-20 3-15 2-33 4-39 3 1-4 11-15 10-15 7-9 6-8 13-17 9-10 9-11 12-13 3-4h2l2-4 8-8 8-7 3-3h2l1-3 14-11 11-8 8-6 15-8 16-6 16-5z" fill="#B6844B"/>
<path transform="translate(986,1285)" d="m0 0h2l4 27 3 32 1 24v32l-1 24-3 27-4 22-6 25-8 22-5 11-6 12-7 11-8 10-12 13-2-1-13-32-12-28-13-29-14-30-8-17-1-5-3-3-18-36-12-22-15-28-14-24-10-17-9-14v-3l13 2 49 7 22 2 20 1h25l23-2 18-3 17-6z" fill="#FDFDFD"/>
<path transform="translate(1371,678)" d="m0 0h21l16 3 15 5 9 5 7 4v2l4 2 11 9 11 12v2h2l4 6v2h2l5 9 4 8 5 13 3 16v24l-4 20-5 11-4 16-8 17-4 8-4-2 1-4 5-9 2-13-2-10-7-10-1-3 3-18-9-2-8-6-6-7-6-11-3-8-2-6v-7l-17 9-11 4-12 2h-8l-10-2-12-5-6-4-12 13-7 7-7 4-9 1-3-2v-2l-4-1-8-4h-12l-8 7-3 5-4 12-1 6v16l1 8-13 4-9 7-5 9-2 7v9l3 10 6 8 9 6 7 2h15l-3 9-8 16-3 4-8-1-19-3h-18l-29 1-18 2-20 6-17 8-10 8-2 3h-2l-2 5-10 19-4 12-7 14-7 20-9 30-6 26-4 21-2 2-9-14-5-11-4-11-3-14v-30l4-16 4-10 9-14 20-20 8-7h2l1-3 8-6h2v-2l9-6 16-12h3v-2l12-7 7-5 11-6 15-10h2v-2l7-4 14-12 5-6 5-5 9-12 6-11 7-14 6-14 10-32 7-19 11-22 5-8 9-12 7-8h2v-2l13-10 14-7 13-4 23-5z" fill="#1D1716"/>
<path transform="translate(1574,1309)" d="m0 0h1l7 43 7 40 6 40 1 2v6l2 1v9l8 50 9 54 2 9 2 22-73 4h-13l-4-10-5-16-9-27-4-13-14-41-6-18-9-24-7-28-5-32-2-24-1-28-1-4h65l18-2 16-4 5-3 2-3h2z" fill="#B6834B"/>
<path transform="translate(1768,686)" d="m0 0h20l16 3 17 7 12 8 7 6v2l4 2 7 8 6 10 7 15 3 13 1 15-2 20-5 15-7 13-6 9h-2l-2 4-4 4h-2v2l-12 9-17 8-9 3-13 2h-16l-16-3-14-5-12-7-9-7-12-12-9-14-6-16-3-16v-20l3-15 6-15 7-11 12-14 13-10 16-8 10-3z" fill="#F0EDE5"/>
<path transform="translate(1319,788)" d="m0 0 7 1 16 8 5 4 4-1 10-6 4-1h14l9 4 6 4 6 9 3 11v10h8l9-10 10-5 5-1 13 1 11 5 9 13 2 13-2 10-5 9-1 4 10 11 3 5 9 12 8 11 4 5 8 11v3l3 1 9 12v3l3 1 4 6 10 14 14 20 8 12 9 12 5 10 7 10 7 11 8 14 6 12 4 13 1 5v12l-2 1-13-6-13-4-20-2-18 1-17 4-15 6h-3v2l-2-1-2-5-9-21-5-14-10-25-4-11-5-13-5-12-5-13-6-15-5-14-3-7-2-6-2-1 2-5 6-7 4-11v-13l-4-9-1-3 7-8 5-10-5 1-7 2-13-1-10-5-8-8-5-14v-13l-7 1-6 8-4 4-8 4-4 1h-13l-6-2-9-6-6-8-3-9v-11l2-7-1-5-5-4-16-7-2-2z" fill="#EE9264"/>
<path transform="translate(252,698)" d="m0 0 2 1-10 18 4 5 12 9v2l4 2 3 2-1 4-11 16-8 12-1 3h2v2h2v2h2l7 8 7 7 7 8 3 3-3-9-8-20 1-4 4-6h2l2-5 4-5h2l2-4 9-13h-2l-7-8v-2h-2l-7-8 1-5 5-12 4 2 15 15 7 6 7 8 9 8 7 8 9 8 7 8 9 8 4 4v2h-28v78l-129-1-1-3v-73l-26-1 6-7 59-59h2l2-4 4-4h2l2-4z" fill="#D3CFC5"/>
<path transform="translate(288,473)" d="m0 0 19 1 18 6 12 8 7 6 8 10 5 8 6 16 1 8v16l-2 11-5 13-6 10-5 6h-2l-2 4-9 7-10 6-15 5-7 1h-17l-15-4-10-4-10-7-7-6v-2h-2l-9-13-4-8-3-9-1-6v-24l3-12 3-8h2l1-5 8-11 11-9 9-6 12-5z" fill="#D3CFC5"/>
<path transform="translate(508,1080)" d="m0 0h12l19 1 13 4 3 1 21 2 7 3 6 7 2 4 20 5 19 7 21 11 14 10-2 1-43-15-17-6-8-2 9 26 3 5v15l-3 12-7 14-8 10-11 11-9 7-18-6-9-4-13-6-10-4-16-8-10-4-8-5-13-8-10-7-6-9-1-7v-11l2-3h2v-2l4-2h3v-2h2l3-9 4-10 6-4 14-4 7-14z" fill="#EE9264"/>
<path transform="translate(572,1392)" d="m0 0 2 3 7 24 12 36 11 30 6 13 7 16 10 21 9 16 8 14 11 16 13 17 2 4h2l5 5v2l3 1 7 8 5 4v2l4 2v2l-8 1h-15l-19-2-23-5-16-6-15-8-14-10-15-14-13-14-9-12-14-21-10-17 1-6 8-16 6-15 8-16 12-29 6-17 4-17z" fill="#1A433F"/>
<path transform="translate(1443,1388)" d="m0 0h1l2 16 3 15 9 27 11 28 6 14 7 18 4 8-5 9-11 16-6 8-10 13-15 16-16 14-14 9-15 7-11 4-18 4-13 2h-33l-5-2 2-3h2v-2l6-4 12-10 7-8 11-13 1-2h2l2-4 10-15 11-17 13-24 15-30 11-26 13-34 10-30z" fill="#976436"/>
<path transform="translate(663,649)" d="m0 0h21l12 3 10 6 7 7 3 5 15 1 11 4 7 7 4 9 1 5v22l-4 18h-4l-4-5-9-3-32-2-5-1-3-5-9-7-9-4h-20l-9 2-4 1-1 3-4 1v2l-9 5-10 4h-7l-9-1h-2v2h-2v2h-2l-1 5-3 6-2 9v13l1 10-2-3-1-6-6-1-17-7-12-6-7-7-1-4 3-5 6-4 12-3-2-4-11-11-7-9-1-7 5-3 4-1 17-1-12-12-3-6v-6l3-2h12l13 3 9 4 4-1 27-11 21-7z" fill="#5D2008"/>
<path transform="translate(719,768)" d="m0 0h4l4 16 3 16v4l3 1v2l6 2 7 1v4h-9l-4-2 1 7 2 12v21l-4 17-8 20-9 16-4 5-8 7-14 10-3 1h-7l-5-2-4-19v-4h-13l-13-2-10-4-8-7-8-14-5-15-4-19v-7l4-8 6-4 15-5 17-3 13-5 5-1h13l16 3h9l5-5 1-5v-13l-2-18z" fill="#5D1F08"/>
<path transform="translate(1491,1224)" d="m0 0h11l15 5 19 3 18 8 5 6 1 12 1 4h2l5 5 4 5v18l4 6 1 1v8l-3 7h-2l-2 4-5 3-16 4-18 2h-65l-3 3-5 2h-8l-2-2v-11l-4-20-9-29-2-5v-5l4-3h11l3 1 10-3 10-11 1-2h2v-2h2l2-4 4-2v-2l6-5z" fill="#EF9264"/>
<path transform="translate(776,884)" d="m0 0h2v10l-4 23-6 25-10 28-4 10-8 15-7 11-11 12-9 8-12 6-6 2-7 1h-11l-10-4-7-7-5-10-3-17v-24l2-19 6-28 3-9 1-2 3 1 2 10 11 3h18l16-3 14-5 16-10 13-12 4-5 1-7z" fill="#FDFDFC"/>
<path transform="translate(1093,1201)" d="m0 0h1v15h-2v10l-2 30-1 8v57l3 16 5 12 6 10 9 10 11 8 14 7 17 5 12 2 1 2-12 22-5 9-3 6-10 19-12 23-11 23-8 16-8 17-5 11-4 9-1-4 4-9-1-11-7-41-4-35-2-32-1-32v-16l2-52 3-36 5-40z" fill="#FDFDFD"/>
<path transform="translate(377,1119)" d="m0 0 4 1-1 6-5 10-6 10-2 7h12l23 11 9 6 5 3 10 8 1 1v6l-3 4-4 2h-10l-12-3v2l5 1 12 9 5 4 3 5v5l-3 3-4 2h-25l9 4v2l4 1 5 4 1 7-2 4-5 3h-12l-12-3-8-3 13 13 1 7-3 3-3 1h-11l-9-2-15-6-9-6-2-3-1-5v-11l3-43 4-20 7-16 8-12 9-12 8-7z" fill="#ED9264"/>
<path transform="translate(551,1283)" d="m0 0h4l6 16 9 27 12 32 11 29 12 29 9 21 4 9 15 31 8 16 10 18 6 11 11 19 7 10 10 15 3 4v2h2l4 6 9 10 7 8 14 14 14 10 16 8 16 4 8 1h22l24-4 20-6 24-10 19-10 10-6 14-9 14-10 5-1-1 5-15 11h-2v2l-15 9-9 5-21 11-11 5-20 7-20 5-14 2h-25l-13-2-16-5-15-8-13-10-6-5v-2l-4-2-3-3v-2h-2l-7-8-10-12-8-11-9-13-11-17-16-28-12-23-8-15-7-15-16-36-11-27-7-17-11-29-13-37-2-5-2 37-4 36-5 28-7 26-10 27-13 32-6 15-7 20-8 20-10 29-5 14-1 3 12 1 1 5-8 25-18-1-5-1-34-3-48-5 1-11 3-15 4-4 75 7h11l13-36 7-20 11-29 15-38 11-27 7-23 5-22 4-25 3-30z" fill="#1A433F"/>
<path transform="translate(1426,1043)" d="m0 0h2l3 10 8 32 7 21 17 1 13 3 1-2 3 1-4 3-9-1-16-2h-11l-20 3-16 5-12 4-19 10-8 6-5 3-1-3 4-3v-2l-11-1-40-6-37-5-14-2 1-22 2-27 1-6 15 1 32 5 42 8 38 9 4 2v28l12-3 8-3 4-2h9l9-1-1-8-6-19-7-30v-6z" fill="#D3CFC5"/>
<path transform="translate(1768,686)" d="m0 0h20l16 3 17 7 12 8 7 6v2l4 2 7 8 6 10 7 15 3 13 1 15-2 20-5 15-7 13-6 9h-2l-2 4-4 4h-2v2l-12 9-17 8-9 3-13 2h-16l-16-3-14-5-12-7-9-7-12-12-9-14-6-16-3-16v-20l3-15 6-15 7-11 12-14 13-10 16-8 10-3zm3 14-14 3-15 6-10 7-7 6-12 16-6 14-3 13v19l2 10 6 16 9 13 5 6 13 10 12 6 14 4 7 1h12l17-3 12-5 11-7 8-7v-2h2v-2h2l8-11 6-13 3-12 1-8v-9l-2-14-6-16-9-14-9-9-13-9-10-5-18-4z" fill="#D3CFC5"/>
<path transform="translate(389,1557)" d="m0 0 1 4-6 28-5 26h10l58 6 14 1 2 1-1 14-3 12-8 7-7 3-5 1h-7l-16-4-17-6-4-1h-7l-7 3-11 9h-2l-3-17-1-13-2-7h-9l-8 5-6 2h-12l-9-2-27-9 1-18 2-17 34 5 16 3 16 2 10 2h6l9-29z" fill="#ED9264"/>
<path transform="translate(1616,1563)" d="m0 0 2 2 6 20 2 8v4l12-1 21-3 44-5h9l1 52 6 2 4 4-6-2v-2h-5v-2l-16 4-15 5-7 2h-13l-9-4-4-2v-2h-7l-4 4-1 4-2 18-2 4-10-9-6-4-4-1v-44l4-2 7-1-2-15-4-23z" fill="#EF9264"/>
<path transform="translate(1612,1613)" d="m0 0 4 1-3 1-1 44-16 3-22 7h-16l-8-4-4-3-6 1-3 3-3 22 2 3v2l3 1 10 13 6 12 3 12v21l-4 12-2 1-28-1 2 12-2-1-1-3v-28l2-16 3-22 3-16 4-26 4-4 3-1v-5l-3-8-5-25-11-1v-1z" fill="#EF9264"/>
<path transform="translate(1060,1483)" d="m0 0h1l4 25 6 28 4 18 3 9h2l2-6 3-5 2 1-6 13h-3l-2-4-12 1-28 7-18 7-6-1-13-6-19-6-4-2 1-2h2l2-5 8-13 10-22 7-24 2-5 5 2 5 3v2l5 2 7 5 5-1 11-7 12-9h2z" fill="#F0EDE5"/>
<path transform="translate(1772,720)" d="m0 0h17v13l11 1 10 4 2 3-7 17-3 2-5-3-8-2h-15l-2 1 1 5 19 5 10 3 8 5 4 6 1 3v14l-4 8-9 8-8 3h-5v13l-1 1h-16v-13h-7l-16-4-6-3-1-2 7-16 3-3 8 4 8 2h16l3-1v-4l-11-4-16-3-11-7-5-8-1-11 2-8 3-5h2v-2h2v-2l9-5 7-2h4z" fill="#D3CFC5"/>
<path transform="translate(538,1488)" d="m0 0 2 3 14 25 16 24 13 18 9 10 7 8 7 7 14 11 16 9 16 5 12 2h16l7 8 5 4v2l4 2v2l-8 1h-15l-19-2-23-5-16-6-15-8-14-10-15-14-13-14-9-12-14-21-10-17 1-6 8-16z" fill="#1B4440"/>
<path transform="translate(1472,1483)" d="m0 0 2 2 8 21 4 8-5 9-11 16-6 8-10 13-15 16-16 14-14 9-15 7-11 4-18 4-13 2h-33l-5-2 2-3h2v-2l6-4 8-7h15l18-3 14-5 10-6h3v-2l9-6 3-3h2v-2l6-5h2v-2h2l2-4 4-5 3-3h2l2-4 9-11 10-14 10-15 6-10 7-11z" fill="#986537"/>
<path transform="translate(1339,625)" d="m0 0h21l12 3 12 6 8 7 7 12 3 11v10h-33l-19 3-15 4-16 6-10 4-3-9v-21l3-11 6-10 6-7 14-7z" fill="#1C1817"/>
<path transform="translate(1597,1445)" d="m0 0 2 3 7 19 8 23 3 10 3 8 5 16 6 17 5 18 1 4-6 2-10 2v2l15-1 38-5 20-3 19-3 4-1 3 21v10l-32 4-38 4-21 3-3-1-8-29-5-19-7-45-5-29-4-25z" fill="#976436"/>
<path transform="translate(1638,997)" d="m0 0h15l8 2 10 5 3 2v2l4 2v2h2l5 12v16l-5 10-7 5h-13l-8-5v2l-4 3h-12l-6-4-4-5-2-6v-10l3-8 5-5 6-2 10 1h3l15-1-2-1v-2l-10-3h-15l-7 1v2l-6 4-4 6-2 6v12l4 10 4 4v2l12 4h12l11-2 2 6-1 5-14 3h-10l-16-5-10-9-5-8-3-10v-11l4-13 6-8 8-6 11-4z" fill="#D3CFC5"/>
<path transform="translate(1308,880)" d="m0 0 5 4 5 7 8 7 14 11 15 9 13 5 21 2 7 9 9 6 8 2h13v14l3 12 6 8 5 6 2 5h2l6 11 6 16 1 8-4-5-8-11-7-8-11-9-10-7-16-9-13-8-19-10-7-2-9-6-11-9-9-11-8-11-11-20-6-14z" fill="#1F1917"/>
<path transform="translate(244,518)" d="m0 0 5 2 7 5v2l5 2 14 11 12 9 5 3v2l4 2 19 14 10 8 6 4-1 4-10 7-16 6h-20l-14-4-10-6v-2l-4-2-8-9-5-8-5-16v-16l5-16z" fill="#F0EDE5"/>
<path transform="translate(285,489)" d="m0 0h15l12 3 12 6 8 6 8 10 5 11 3 11v16l-4 15-2 3-5-2-30-23-13-10-19-14-13-10-7-5 2-4 10-7 13-5z" fill="#F0EDE5"/>
<path transform="translate(1533,1685)" d="m0 0 4 1 5 5 10 11 8 17 3 14v19l-3 10-1 2 97 1 80 1 36 1v12l-2 2-133-1-53-1h-50l-7-1-3-7v-7h29l4-12v-21l-4-14-5-10-8-10-6-7h-1z" fill="#9C6638"/>
<path transform="translate(989,1274)" d="m0 0 5 1 6 51 2 26v64l-2 24-4 28-6 26-9 27-6 13-8 15-8 12-11 13-8 7h-2l-1 3-2-7 8-8 9-11 7-10 7-12 9-21 8-24 6-27 3-21 2-19 1-24v-32l-1-24-4-40-2-13v-6l-14 7-17 5-21 3-15 1h-25l-32-2-40-5-29-5-6-1-18-4v-2l-4-1 5-3h7l37 7 44 6 26 2h42l19-2 21-5 12-5z" fill="#D3CFC5"/>
<path transform="translate(732,811)" d="m0 0 5 2 10 1 1 1 2 13 3 9 4 11 6 21 2 4 2 8 1 3v10l-7 8-11 10-16 10-14 5-16 3h-18l-4-2 9-3 12-9 6-6h2l2-4 9-15 6-14 4-12 3-13v-21l-3-15z" fill="#ED9264"/>
<path transform="translate(821,992)" d="m0 0 5 1 7 11 6 12 8 14 18 36 11 25 8 20 5 13 8 26 2 11h17l16 3 8 4-1 4-4 1-16-4h-7l15 10 13 11 2 4h2l5 7-1 5-5-1-9-10-10-9-4-2v-2l-5-2-15-9-2-1-50-2-44-3-40-4-32-5-28-6-25-7-8-4 1-4h8l24 7 21 5 35 6 50 5 46 3 36 1-4-16-11-33-11-27-7-15-9-19-8-16-9-16-12-22-1-4z" fill="#D3CFC5"/>
<path transform="translate(776,884)" d="m0 0h2v10l-4 23-2 8-4 1-2 4-6 7h-2v2l-13 10-14 6-9 2h-20l-17-4-17-8h-3l-4 20-1 11v16l2 16v6l-2-4-2-13v-24l2-19 6-28 3-9 1-2 3 1 2 10 11 3h18l16-3 14-5 16-10 13-12 4-5 1-7z" fill="#FCFCFC"/>
<path transform="translate(1446,1330)" d="m0 0h6l1 2-5 11-12 29-9 20-12 26-13 27-10 19-14 26-8 13-10 17-11 16-8 12h-2l-2 4-4 6-8 10-1 2h-2v2h-2l-2 4-20 20-16 12-11 6-15 6-12 2h-31l-20-4-22-7-8-4-21-10-9-5-16-10-13-9v-2l-5-2-10-9 1-3 5 1 11 8v2l5 2 21 14 17 10 22 10 21 7 18 4 6 1h24l16-3 9-3 12-6 16-12 13-12 5-5 7-9h2l2-4 8-10 8-11 9-13 7-11 9-14 7-12 9-16 20-38 11-23 14-30 13-31 5-12z" fill="#976436"/>
<path transform="translate(285,1553)" d="m0 0 25 5 58 10 15 2 2 1-8 26-1 1-13-1-11-2-21-3-16-3-16-2-11-2-7-1-1-5z" fill="#1B433F"/>
<path transform="translate(750,733)" d="m0 0 7 6 7 9 3 9 1 6v25l-5 12-7 8-4 3h-5l-1 3v-4h-7l-6-3-3-3-7-34-1-12-1-3 4-9 7-7 7-3 7-1 4 1z" fill="#ED9264"/>
<path transform="translate(383,1589)" d="m0 0 2 1 87 8 19 2-1 7-6 18-18-1-5-1-34-3-48-5 1-11z" fill="#306E69"/>
<path transform="translate(390,1616)" d="m0 0h10l47 5 14 1 2 1-1 14-3 12-8 7-7 3-5 1h-7l-16-4-17-6-10-2-1-1v-30z" fill="#EE9264"/>
<path transform="translate(1619,1587)" d="m0 0h1l4 22-1 4-4 1-20 1-78 5-2-6-5-17v-2l93-5h12z" fill="#B6844B"/>
<path transform="translate(1848,998)" d="m0 0h13l1 2-1 9h7l1-10 1-1h12l1 2-1 9h9v12l-1 1h-10l-1 9h9v13h-11l-1 10-1 1h-12l-1-2 2-9h-8l-1 11h-13v-10l-8-1-1-1v-11l1-1 10-1 1-8h-8l-1-1v-12l11-1z" fill="#D3CFC5"/>
<path transform="translate(1434,886)" d="m0 0 4 1 8 9 3 8v13l-4 11-8 10-1 2 4 2 3 10 4 9 3 9 10 26 11 28 5 12 10 27 5 12 4 10-1 3-9-16-13-21-5-10-7-12-1-6h-2l-4-15-5-12-4-6v-3h-2l-3-5v-2l-3-1-6-8-4-9-1-6v-8l1-6-4 1h-9l-10-3-8-6-6-8v-2l4-1 8 9 7 4 4 1h11l5-1 2-6 2-2v2l5-1 5-8 1-4v-11l-4-10-6-6z" fill="#D2CEC4"/>
<path transform="translate(1106,1130)" d="m0 0h9l106 15v7l-2 2-107 4h-10l1-13 2-13z" fill="#EC7758"/>
<path transform="translate(1368,797)" d="m0 0 11 1 8 4 5 4 5 9 1 5v8l-4 10-5 5-5 4-9 3-11-1-8-4-8-9-2-6v-14l4-8 9-8z" fill="#ED9264"/>
<path transform="translate(1434,820)" d="m0 0h10l10 4 8 9 3 8v6l-12-4 1 4 10 5-3 9-7 7-9 4h-12l-9-4-5-4-6-12v-12l4-9 7-7z" fill="#ED9264"/>
<path transform="translate(780,880)" d="m0 0 5 1-2 20-5 25-7 26-8 22-8 17-7 12-9 12-9 10-13 9-12 5-12 2-15-1-11-6-6-7-5-10-3-11-1-8v-27l3-22 6-29 3-8 5 1-1 9-3 14-4 18-2 19v24l3 17 6 11 7 6 8 3h11l10-2 10-4 10-7 11-11 7-10 6-10 7-15 7-19 5-14 7-31 5-30z" fill="#BD854E"/>
<path transform="translate(1319,788)" d="m0 0 7 1 16 8 5 4 4-1 10-6 4-1h14l9 4 6 4 6 9 3 11v10h8l9-10 10-5 5-1 13 1 11 5 9 13 2 13-2 10-5 9-7 6-8 4-5 1-13-1-10-5-8-8-5-14v-13l-7 1-6 8-4 4-8 4-4 1h-13l-6-2-9-6-6-8-3-9v-11l2-7-1-5-5-4-16-7-2-2zm49 9-10 4-8 7-4 8v14l3 7 7 8 8 4 11 1 11-4 5-4 6-10 1-4v-8l-3-9-5-7-8-5-9-2zm66 23-10 4-8 8-3 8v12l6 12 6 5 8 3h12l10-5 6-6 3-9-11-6v-3l12 4-1-9-4-8-8-7-8-3z" fill="#EAE7DF"/>
<path transform="translate(1465,1325)" d="m0 0h2l1 3 1 28 3 32 5 28 6 24 13 35 4 13 15 43 4 13 9 28 5 16h13l58-3h15v5l-29 2-57 3h-19l1-5h12l-10-32-24-72-9-25-9-27-4-16-3-15-4-31-1-12-1-32z" fill="#976436"/>
<path transform="translate(1534,1688)" d="m0 0 2 3v2l3 1 10 13 6 12 3 12v21l-4 12-2 1-28-1 2 12-2-1-1-3v-28l2-16h2l1-12 1-6 2-8 2-12z" fill="#EF7659"/>
<path transform="translate(1270,835)" d="m0 0h8l6 8 5 4 8 3 1 12-6 18-4 6-5 2h-12l-9-4-7-6-3-5-2-7v-10l4-9 6-7z" fill="#1E1817"/>
<path transform="translate(1093,1201)" d="m0 0h1v15h-2v10l-2 30-1 8-1 43h-1l-2 29v80l2 32 4 35 6 35 2 1 1-3 2-4h2l1-5 2-3 2 1-11 23-5 11-4 9-1-4 4-9-1-11-7-41-4-35-2-32-1-32v-16l2-52 3-36 5-40z" fill="#D3CFC5"/>
<path transform="translate(1616,1563)" d="m0 0 2 2 6 20 2 8v4h9l2 3 8 38v4l-7 3-2 6-2 18-2 4-10-9-6-4-4-1v-44l4-2 7-1-2-15-4-23z" fill="#EFECE4"/>
<path transform="translate(1696,527)" d="m0 0 6 2 17 17 4-2 14-14 3-2h7l2 3v5l-5 6h-2v2l-5 4-1 2h-2v2l-4 3 2 4 17 17v6l-4 3-6-1-18-18h-3v2l-5 4-1 2h-2v2l-5 4-1 2h-2v2l-6 1-3-1-2-6 6-8 8-8h2v-2h2l1-5-18-18v-7z" fill="#D3CFC5"/>
<path transform="translate(328,953)" d="m0 0h5l17 16 3 3h3l2-4h2v-2h2v-2l4-4h2v-2h2v-2h2v-2l7-1 3 3v6l-18 18 1 4 6 7 8 7 3 4v6l-4 3-6-2-2-1v-2h-2l-4-5-2-1v-2h-2l-5-6-4 1-17 17-5 1-4-3v-6l1-2h2v-2h2v-2h2v-2h2v-2h2v-2h2l2-4h2v-2h2l-2-5-4-3v-2h-2l-4-5-2-1v-2h-2l-3-4v-6z" fill="#D3CFC5"/>
<path transform="translate(1762,1747)" d="m0 0h30l81 1v11l-1 3-6 1h-22l-51-1-4-1-19-1-6-9z" fill="#9B6638"/>
<path transform="translate(1437,1255)" d="m0 0h11l3 3 7 15 5 15 3 16 1 8v12l-4 4-5 2h-8l-2-2v-11l-4-20-9-29-2-5v-5z" fill="#FDFDFD"/>
<path transform="translate(410,1448)" d="m0 0h1l-1 8-7 36-9 46-3 16-5 14h-2l-1-2-15-3 1-7 11-31 15-40 12-31z" fill="#1A433F"/>
<path transform="translate(416,1418)" d="m0 0h1l-1 11-4 18-6 12-11 29-15 40-11 31-1 4 10 1 6 2 1 4-5 1-52-9-40-7-3-2 2-4 12 1 56 10 7 1 3-11 9-25 13-35 12-31 13-31z" fill="#1B1615"/>
<path transform="translate(389,1557)" d="m0 0 1 4-6 28-5 26h10l1 2h-2l1 22v9l-8 4-11 9h-2l-3-17-1-13-2-7-4-2 2-5 3-10 2-10h11l9-29z" fill="#D3CFC5"/>
<path transform="translate(644,1047)" d="m0 0 4 1 5 5v2l4 2v2h2v2l4 2 9 8 15 10 10 6 13 6 20 7 22 5 18 2h27l11-1h11l1 4-2 2-18 2h-32l-18-2-22-5-13-4-15-7-17-9-12-8-13-11-8-7-5-6v-2h-2v-5z" fill="#D3CFC5"/>
<path transform="translate(696,725)" d="m0 0 37 2 9 3 4 5-7 2-8 4-7 8-2 7 1 2v10l-11 3-2 1-6-13-4-12-2-9-1-10z" fill="#EC7557"/>
<path transform="translate(726,875)" d="m0 0 2 1-1 6-8 16-6 9-12 12-12 8-3 1h-7l-5-2-4-19 1-4 20-4 12-5 14-10z" fill="#1E1715"/>
<path transform="translate(540,1483)" d="m0 0h2l15 26 13 21 16 22 9 11 13 14 11 9 14 9 12 5 16 4 14 1 2 4h2v2h-15l-16-3-14-5-14-8-11-9-10-9-7-7-9-11-12-16-12-18-8-13-12-21z" fill="#1B1615"/>
<path transform="translate(1595,1427)" d="m0 0 2 3 12 32 10 29 11 33 8 26 3 9v4l32-5 17-2 24-3 3 1-1 3-14 3-24 3-21 3-30 4h-6v-4l15-3-1-4-6-20-5-15-3-10-4-13-3-9-4-11-7-19-6-17-1-5z" fill="#5D1F08"/>
<path transform="translate(869,1434)" d="m0 0h4l-1 9-6 21-3 20v25l3 15 8 16 8 8 10 6 13 5 18 3 3 2-1 4h-12l-17-4-13-7-9-7v-2h-2l-7-10-5-10-4-16v-30l3-18 6-22 3-7z" fill="#1A433F"/>
<path transform="translate(1151,1420)" d="m0 0h4l3 8 5 20 2 16v24l-3 16-5 13-7 11h-2l-2 4-11 8-12 5-11 3-16 1-2-1 1-5 20-3 12-4 10-6 8-7 6-9 6-18 1-8v-20l-4-28-4-13v-6z" fill="#966436"/>
<path transform="translate(1701,997)" d="m0 0h15l10 4 5 7v9l-4 6-7 7-2 3h-17l1-6 2-3h2l2-4h2l1-6-1-1-9 1-3 3-5-2-9-4 2-5 5-5z" fill="#D3CFC5"/>
<path transform="translate(775,897)" d="m0 0h2l-2 14-3 14-4 1-2 4-6 7h-2v2l-13 10-14 6-9 2h-20l-17-4-17-8h-3l-4 20-1 11v16l2 16v6l-2-4-2-13v-24l2-19 4-18 2-2 4 4 15 7 9 3 14 2h10l14-3 13-7 5-4h2v-2h2v-2l5-5 8-10 1-1h5v-8z" fill="#D3CFC5"/>
<path transform="translate(1485,1516)" d="m0 0 3 4 9 23 3 8v8l-36-3-3-1 2-6h2v-2l4-4 1-3h2l1-7 11-16z" fill="#EEEBE2"/>
<path transform="translate(1469,1480)" d="m0 0 3 2v5l-8 13-10 16-7 10-9 12-9 11-2 3h-2l-1 3h-2l-2 4-4 5h-2v2l-6 5h-2v2l-12 9h-2v2l-11 6-13 5-13 3-8 1h-14l4-5 19-2 16-4 14-7 15-11 6-5 5-5 11-12 1-2h2l2-4 3-3 1-3 4-4 12-17 4-5 5-9 10-17h2z" fill="#5D1F08"/>
<path transform="translate(1270,830)" d="m0 0h6l1 4-7 2-10 5-6 7-3 8v10l3 9 6 7 8 4 3 1h12l5-2h3v-2l5-3 6-12 1-7-2-9-6-10-6-5-1-4 5 1 8 7 4 5 3 8v15l-6 12-7 7-12 5h-12l-9-3-9-7-5-7-3-10v-9l3-10 7-9 9-6z" fill="#F5F4F2"/>
<path transform="translate(1808,998)" d="m0 0h13l-2 5-17 25-6 9-11 16-1 2h-14l2-5 13-19 4-7h2l2-5 6-8 4-7z" fill="#D3CFC5"/>
<path transform="translate(1423,901)" d="m0 0 2 3 4 9 3 9-1 8-3 6-5 2h-11l-8-3-9-8-1-5 7-3 10-6h2l1-3 7-6z" fill="#211917"/>
<path transform="translate(1616,1563)" d="m0 0 2 2 6 20 2 8v4h9l2 3 8 38v4l-7 3-2 6-2 18-2 4-2-3 1-4 2-11 2-12 7-4-2-13-2-10v-5h-2l-2 5h-2l-2 4-8 7-8 5v25l7 2 6 7h-3l-8-6-4-1v-44l4-2 7-1-2-15-4-23z" fill="#D3CFC5"/>
<path transform="translate(1773,997)" d="m0 0 8 1 5 3 4 7v10l-3 6-5 4-2 1h-9l-6-3-4-5-1-3v-10l4-7 4-3z" fill="#D3CFC5"/>
<path transform="translate(1811,1024)" d="m0 0h10l5 3 4 4 1 3v11l-4 7-4 3h-13l-6-4-3-6v-9l3-7 4-4z" fill="#D3CFC5"/>
<path transform="translate(597,996)" d="m0 0 3 1v8l-5 40-1 11v41l2 7-6-2-5-8-5-4-4-2h6l3 2 2-42 4-35 2-13z" fill="#D3CFC5"/>
<path transform="translate(1259,976)" d="m0 0h4l7 8 12 11 18 13 17 9 11 4 8 1h11l13-4 10-7h4l-1 5-9 7-10 4-6 1h-15l-18-5-18-10-13-9-13-11-13-13z" fill="#D3CFC5"/>
<path transform="translate(363,1615)" d="m0 0 4 2 5 4v2l4 1v2l5 2 5 3 1 5v12l-11 8-6 5h-2l-3-17-1-13-2-7-4-2 4-1z" fill="#EEEBE3"/>
<path transform="translate(1736,998)" d="m0 0h21l-1 18-2 17h-15l-2-11-2-23z" fill="#D3CFC5"/>
<path transform="translate(659,739)" d="m0 0h8l10 3 5 5 1 5-2 4-8 3h-18l-7-2-3-5 1-6 5-4z" fill="#60220A"/>
<path transform="translate(611,754)" d="m0 0h13l5 5 1 4-3 5-7 4-5 3-10 3h-7l-4-5 1-7 6-7z" fill="#5E2109"/>
<path transform="translate(592,1103)" d="m0 0 16 3 20 7 23 12 14 10-2 1-43-15-17-6-9-3-2-3z" fill="#346F6E"/>
<path transform="translate(524,1519)" d="m0 0 3 3 12 20 4 6v2l-8 1-25 2 1-5 12-27z" fill="#EEEBE3"/>
<path transform="translate(1434,886)" d="m0 0 4 1 8 9 3 8v13l-4 11-7 8-8 5-8 2h-9l-10-3-8-6-6-8v-2l4-1 8 9 7 4 4 1h11l5-1 2-6 2-2v2l5-1 5-8 1-4v-11l-4-10-6-6z" fill="#E7E3DB"/>
<path transform="translate(1426,1043)" d="m0 0h2l3 10 8 32 7 21 17 1 13 3 1-2 3 1-4 3-9-1-16-2h-11l-20 3-16 5-5 2h-3v-3l12-3 8-3 4-2h9l9-1-1-8-6-19-7-30v-6z" fill="#D3CFC5"/>
<path transform="translate(556,1087)" d="m0 0h14l12 3 7 8 3 5 2 7 6 17v4l-3-1-7-11-12-14-6-5v-2l-4-2-12-8z" fill="#E87857"/>
<path transform="translate(712,779)" d="m0 0h1l1 10v13h-1l-1-7-8 4-10 2h-10l-5-2-1-1v-5l7-6 13-4h13z" fill="#EC7557"/>
<path transform="translate(1369,673)" d="m0 0h28l6 1v5h-32l-19 3-22 6-12 5-5 3-4-1 3-6 20-8 13-4 16-3z" fill="#F7F7F5"/>
<path transform="translate(1452,847)" d="m0 0 9 3 3 2-3 9-7 7-9 4h-12l-9-4-3-2-1-4 3-1h17l6 2 3-9z" fill="#E97757"/>
<path transform="translate(1336,799)" d="m0 0 5 2 4 5v3h5l-3 7v14l3 7 6 7 8 4 11 1 11-4 3-3h2l5-10 1 3h5l-4 5-6 8-10 5-4 1h-13l-6-2-9-6-6-8-3-9v-11l2-7-1-5-5-4-3-2z" fill="#EFECE6"/>
<path transform="translate(1163,1276)" d="m0 0 12 2 16 5 9 1 1 4-1 2-16 2-13 4-7 3-5-1 1-4 10-5 9-2v-2l-13-2-5-2 1-4z" fill="#EF7659"/>
<path transform="translate(1407,834)" d="m0 0h2l1 9-1 3 4-2 2 11 6 10 7 4 5 2h12l12-6 4 3-5 4-8 4-5 1-13-1-10-5-8-8-5-14v-13l-2-1z" fill="#F0EEE8"/>
<path transform="translate(1707,1036)" d="m0 0 9 1 4 4v9l-5 5-7 1-5-2-4-5 1-9 4-3z" fill="#D3CFC5"/>
<path transform="translate(1332,828)" d="m0 0h9l5 12 6 7 4 2v2h-7l-15-6-6-5-3-5 1-4z" fill="#EC7758"/>
<path transform="translate(1743,1036)" d="m0 0 9 1 2 1v2h2l1 8-3 5-2 2-8 1-6-3-2-3v-9l4-4z" fill="#D3CFC5"/>
<path transform="translate(1288,833)" d="m0 0 5 1 8 7 4 5 3 8v15l-6 12-7 7-6 3h-3v-2l4-3 1-3 5-3 6-12 1-7-2-9-6-10-6-5z" fill="#EAE7DF"/>
<path transform="translate(610,813)" d="m0 0h16l4 3 1 4-14 5-4 2-2 5-2 3-2-4-3-12v-4z" fill="#E67656"/>
<path transform="translate(1381,779)" d="m0 0 8 1 10 5 5 6 1 4-1 3-5 1-6-5-14-6-2-3 1-4z" fill="#62250C"/>
<path transform="translate(1457,824)" d="m0 0 5 1 6 9 2 13-2 10-5 9-4 1-2-1 6-12v-2l-10-5-1-2 1-2 7 1 4 2-1-8-4-8z" fill="#F3F3F2"/>
<path transform="translate(1438,801)" d="m0 0h11l9 4 2 3-1 5-1 1h-7l-5-2-14-1-1-6 3-3z" fill="#5F2109"/>
<path transform="translate(369,1122)" d="m0 0 2 1-9 8-9 13-8 13-5 12-4 20-3 43v11l2 7 4 4h-6l-3-4v-18l2-17v-23l2-4 3-17 4-12 3-7 2-1 2-5 3-3 6-8 3-5 5-6z" fill="#D3CFC5"/>
<path transform="translate(1392,923)" d="m0 0 5 5 7 6 8 3h11l7-2 1-2 5 1-2 5-12 4h-9l-10-3-8-6-6-8v-2z" fill="#FAF9F8"/>
<path transform="translate(1267,938)" d="m0 0 4 5 9 10 10 8 16 8 14 4 5 1h19l12-3 5-2 5-15h3l-3 10-3 6-3 3-12 3h-26l-11-2v-2l-6-1-9-3-2-2-6-2-2-3-6-3v-2l-4-1-3-4v-2h-2l-4-7z" fill="#E4E1D8"/>
<path transform="translate(1452,873)" d="m0 0 4 1-5 10-7 8-4-2-3-3v-2l-2-1 1-4-7-2-5-4 12 2h7z" fill="#EA7958"/>
<path transform="translate(1435,815)" d="m0 0 13 1 11 5 1 3-3 2 2 1h-3l-8-5-4-1h-10l-10 4-7 6-4-1 2-4 8-7 7-3z" fill="#EDEAE3"/>
<path transform="translate(638,769)" d="m0 0h4l1 2 3 25-4 9 11 2-1 4-12-2-4-2 1-5 3-6v-8l-2-12z" fill="#321C13"/>
<path transform="translate(1347,830)" d="m0 0 5 1 10 4 6 5v2h2v6l-1 1-8-1-8-6-6-8z" fill="#EA7958"/>
<path transform="translate(275,1709)" d="m0 0 11 2 10 3 1 5-3 3-9-1-11-3-2-2 1-6z" fill="#F6F5F3"/>
<path transform="translate(358,1663)" d="m0 0 18 4 3 3-1 5-1 1-9-1-12-3-2-5z" fill="#F7F6F4"/>
<path transform="translate(310,1694)" d="m0 0 8 1 12 3 2 2v5l-2 2-9-1-11-3-2-2v-5z" fill="#F7F6F4"/>
<path transform="translate(753,754)" d="m0 0h4v4l-5 3h-2l-2 4-1 3 5 1 4 2v4l-5-1-6-2-2 8-2 7-3-1v-10l5-13h2l2-4z" fill="#3B1E12"/>
<path transform="translate(325,1686)" d="m0 0h7l15 4 1 6-2 2-10-1-11-3-2-5z" fill="#F7F6F4"/>
<path transform="translate(294,1702)" d="m0 0 18 4 3 2v5l-2 2-9-1-12-3-1-7z" fill="#F8F7F5"/>
<path transform="translate(343,1676)" d="m0 0 18 4 2 2v5l-2 2-9-1-11-3-2-2v-5z" fill="#F8F7F5"/>
<path transform="translate(239,1648)" d="m0 0h7v2l9 1 5 2 1 5-3 3-8-1-12-3-1-1v-6z" fill="#F8F8F6"/>
<path transform="translate(1696,1405)" d="m0 0 2 4 2 6 2 23 2 8 3 24 2 10 3 27v11h-1l-8-58-7-49z" fill="#D3CFC5"/>
<path transform="translate(1285,792)" d="m0 0 5 2 7 7 4 9 2 7v7l-4 1-1-1-1-10-1-4-7 3h-4l1-4 6-3h2l-5-7-5-3z" fill="#382116"/>
<path transform="translate(190,1675)" d="m0 0h7l13 3 2 2v6l-7 1-15-4-2-5z" fill="#F9F9F7"/>
<path transform="translate(222,1658)" d="m0 0h7l13 3 3 3-1 5-1 1-9-1-12-3-1-1z" fill="#FAF9F8"/>
<path transform="translate(207,1667)" d="m0 0h9l13 4v6l-2 2-12-2-9-3-1-4z" fill="#F9F9F7"/>
<path transform="translate(174,1681)" d="m0 0 18 4 2 2v5l-3 2-12-2-7-2-2-3 1-5z" fill="#F9F9F8"/>
<path transform="translate(257,1635)" d="m0 0h5v2l8 1 5 2 1 5-3 3-11-2-10-3 2-7z" fill="#FAF9F8"/>
<path transform="translate(1712,1523)" d="m0 0 4 6 2 19 2 13 2 16v8l3 1-4 2-8 1 1 35-1 5h-1v-41l2-1h6l-5-39-3-20z" fill="#D3CFC5"/>
<path transform="translate(1402,835)" d="m0 0 5 1 1 13 1 9-7 3-10-1-2-4 5-1h8l-1-5z" fill="#2F1E17"/>
<path transform="translate(662,831)" d="m0 0h15l3 1v4h-16l-11 4-8 6-5 1 1-5 14-9z" fill="#976436"/>
<path transform="translate(1816,1701)" d="m0 0h6l3 2-1 5-8 3-5 1h-8l-2-4 2-3z" fill="#F9F8F6"/>
<path transform="translate(1719,1719)" d="m0 0 4 1 1 5-3 3-13 3h-5l-2-2 1-5 8-3z" fill="#FAFAF9"/>
<path transform="translate(1398,814)" d="m0 0h2l1 10h1l1 6 8 1 5-2 1 3-4 12-4 2-1 2 1-11v-3l-2 1h-10z" fill="#F5F4F1"/>
<path transform="translate(1638,1674)" d="m0 0 5 1 1 5-4 3-16 3-3-3 1-4 7-3z" fill="#E9E6DE"/>
<path transform="translate(1697,1713)" d="m0 0h7l2 2-1 5-15 4h-5l-2-2 1-5 9-3z" fill="#FDFDFD"/>
<path transform="translate(1667,1696)" d="m0 0h6l1 1v5l-2 2-13 3h-6l-2-2 1-4 2-2z" fill="#F9F8F6"/>
<path transform="translate(1652,1687)" d="m0 0 7 1v5l-2 2-12 3h-7l-2-2 1-5z" fill="#FDFDFD"/>
<path transform="translate(1681,1705)" d="m0 0h7l1 1v5l-7 3-8 2h-6l-1-1v-6l9-3z" fill="#E9E6DD"/>
<path transform="translate(1369,867)" d="m0 0 9 1 11 4 6 4v2l3 1 1 6h-4l-6-7-13-5-7-1-1-4z" fill="#372015"/>
<path transform="translate(1257,882)" d="m0 0 5 1 9 4h12l5-2 3 1-3 3h-2v3l-3 1h-12l-9-3-4-4z" fill="#F8F7F5"/>
<path transform="translate(1803,1694)" d="m0 0 3 2-1 3-5 2-2 3-11 2-3-1v-6l8-3z" fill="#FCFCFC"/>
<path transform="translate(1379,794)" d="m0 0 6 1 9 6 6 9 3 11v9h-1l-1-5-1-3v-8h-2v6h-1l-3-9-4-6-8-5 2-2z" fill="#E7E4DD"/>
<path transform="translate(1784,1686)" d="m0 0 5 1 1 4-9 3v2l-5 1h-8l-1-5 1-2 9-1z" fill="#FDFDFD"/>
<path transform="translate(674,774)" d="m0 0h4l-1 7-5 5-3 2h-8l-7-4v-4l6 1 2 1h6l4-4z" fill="#351D13"/>
<path transform="translate(1370,819)" d="m0 0 5 1 3 6 2 1h6l3-2 5 1-1 4-7 3-9-1-5-5-2-4z" fill="#371C12"/>
<path transform="translate(1396,832)" d="m0 0 1 3h5l-4 5-6 8-10 5h-4v-2h-7l4-2 11-4 3-3h2l2-4z" fill="#EAE7DF"/>
<path transform="translate(1288,833)" d="m0 0 5 1 8 7 4 5 2 5v9l-3-1v-7h-3l-6-10-6-5z" fill="#ECE9E2"/>
<path transform="translate(1349,840)" d="m0 0 4 1 8 6 9 2 1 1 7 1v3h-13l-6-2-9-6-1-5z" fill="#F0EEE8"/>
<path transform="translate(1667,1016)" d="m0 0 4 4 2 4v16l-2 3-4-1z" fill="#F0EDE5"/>
<path transform="translate(1407,834)" d="m0 0h2l1 9-1 3 4-2 2 11 4 7-1 3-3-2-1 2-3-5-4-11v-13l-2-1z" fill="#EBE8E1"/>
<path transform="translate(1205,1248)" d="m0 0h1v15l-2 9 1 10-1 3 27-1 2-4h2v-4h2v-2l3 1-8 11-24 1-7-1 1-16z" fill="#E9E6DE"/>
<path transform="translate(1644,1028)" d="m0 0 5 1 2 3v6l-3 4h-5l-3-4v-6z" fill="#F0EDE5"/>
<path transform="translate(1665,1200)" d="m0 0 3 1 7 48 1 2v9l-2 1-7-45z" fill="#D3CFC5"/>
<path transform="translate(1419,835)" d="m0 0 4 1 2 6 6 1 4-2 4 1-2 5-2 1h-11l-4-3-2-5z" fill="#331D14"/>
<path transform="translate(627,789)" d="m0 0 3 1-1 6-5 6h-10l-5-3v-4l6 1h8l3-6z" fill="#331D14"/>
<path transform="translate(596,1185)" d="m0 0 1 3-2 4h-2l-2 4-7 6-2 4-6 4-3 3-8 2-5-3-4-1-4-4 10 3 7 2 13-11 9-9z" fill="#E6E3DA"/>
<path transform="translate(506,1079)" d="m0 0h29l16 3 9 2h6l4 3h-15l-11-4-5-1-28-1-5-1z" fill="#E6E3DA"/>
<path transform="translate(1122,1377)" d="m0 0 15 7 17 5 12 2 1 2-7 13-1-4 4-8-2-1h-5l-5-2-11-2-3-2-10-4-5-3z" fill="#E9E5DD"/>
<path transform="translate(1434,886)" d="m0 0 4 1 8 9v9h2l-1 13h-1l-1-15-3-1-5-8-4-4z" fill="#EBE8E1"/>
<path transform="translate(1687,1335)" d="m0 0 2 4 2 20 2 3 1 19 2 10v12h-1l-9-63z" fill="#D3CFC5"/>
<path transform="translate(1437,1255)" d="m0 0h11l3 3 5 11-3 1-3-5-2-8h-8l-3 2 1 9 2 5v7l-2-3-5-14v-5z" fill="#EAE7DE"/>
<path transform="translate(1824,1707)" d="m0 0 6 1 16 8 10 7 8 7 7 10 1 5-2-1-4-8-7-7-11-9-24-12z" fill="#EF9365"/>
<path transform="translate(446,1248)" d="m0 0h4l1 2v8l-4 20-2 2v-14z" fill="#1B1817"/>
<path transform="translate(654,949)" d="m0 0h1l-1 12-1 10v27l2 11 1 8-1-3h-2v-2h-2v-44l1-17z" fill="#ECE9E1"/>
<path transform="translate(1457,829)" d="m0 0 3 1 4 8 1 9-9-4-1-2v-6z" fill="#282220"/>
<path transform="translate(1766,1678)" d="m0 0h7l2 5-2 2-8 1-10 1v-3h2l1-2 2 1v-2z" fill="#FDFDFC"/>
<path transform="translate(663,943)" d="m0 0 4 1-2 1-4 20-1 11v16l2 16v6l-2-4-2-13v-24l2-19 2-10z" fill="#E9E6DE"/>
<path transform="translate(1280,1216)" d="m0 0 3 1-13 16-4 6-10 13-2 2v-6l4-2 1-5 4-2 2-4h2l2-5 1-2h2v-2h2l1-5 1-2h2z" fill="#E0DDD4"/>
<path transform="translate(1595,1061)" d="m0 0 3 3 3 7 2 8 1 1 1 15 1 2 5 2v2h2l-1 3-7-4-4-4v-12l-3-13-3-7z" fill="#D4D0C6"/>
<path transform="translate(1326,683)" d="m0 0 3 1 1 4-12 5-5 3-4-1 3-6z" fill="#F1F1EE"/>
<path transform="translate(1754,1669)" d="m0 0h5l1 5-4 2-12 2h-4l1-5 9-2z" fill="#FDFDFD"/>
<path transform="translate(1736,1656)" d="m0 0h8l1 6-13 3-6 1-1-4 8-3z" fill="#FDFDFD"/>
<path transform="translate(743,1009)" d="m0 0 1 4-5 5h-2l1 3h-3v2h-2v2l-7 7-9 3v2l-4 1-2-2 11-6 11-9z" fill="#EBE7DF"/>
<path transform="translate(1439,1105)" d="m0 0 1 4-20 3-16 5-5 2h-3v-3l12-3 8-3 4-2h9l9-1z" fill="#EBE8DF"/>
<path transform="translate(764,969)" d="m0 0h1l-1 7-6 13-1 6-4 5-2 5h-3l-2 1 2-4 12-23z" fill="#E9E6DE"/>
<path transform="translate(1138,1440)" d="m0 0 3 1-8 15-10 21-2 1v-4h2v-7h2l2-5 3-8 1-3 3-3h2l1-6z" fill="#E8E5DC"/>
<path transform="translate(728,803)" d="m0 0 5 2v2l6 2 7 1v4h-9l-6-3v-2l-4-2z" fill="#2C1A13"/>
<path transform="translate(1106,1128)" d="m0 0 15 1 31 4-1 2-15-1-30-4z" fill="#EBE7DF"/>
<path transform="translate(1719,1719)" d="m0 0 4 1 1 5-1 2h-2l-1-3 1-2h-7v2l-11 1v3l9 1-4 2h-5l-2-2 1-5 8-3z" fill="#EBE7DF"/>
<path transform="translate(1638,1676)" d="m0 0h4l1 3-4 3-9 1h-5l-2-3 2-2h7z" fill="#FEFEFE"/>
<path transform="translate(1373,880)" d="m0 0 9 1 6 4 2 2-1 4-4-1-1-3-11-3z" fill="#EF7659"/>
<path transform="translate(1697,1713)" d="m0 0h7l2 2-1 5-15 4h-5l-2-2 1-5 9-3 2 1-9 4-1 2 3 1 13-3h2v-5l-7 1z" fill="#E7E4DB"/>
<path transform="translate(1652,1687)" d="m0 0 7 1v5l-2 2-4-1h2l1-4h-5l-3 1-7 1-2 1 1 3 8-1 1 2-4 1h-7l-2-2 1-5z" fill="#E7E4DB"/>
<path transform="translate(1221,1145)" d="m0 0 3 4-1 4h-2l1 5-1 4-1 13-2 3-3 13-1-3z" fill="#EAE7DE"/>
<path transform="translate(1086,1304)" d="m0 0 2 3 2 21 4 15 2 6h-2l-3-5-4-16-1-13z" fill="#EAE7DF"/>
<path transform="translate(1456,865)" d="m0 0 5 2-5 5-8 4-5 1h-7v-1l10-2 1-1-2-2 10-5z" fill="#E6E3DB"/>
<path transform="translate(1323,791)" d="m0 0 6 1 7 3v2l3 1 1 2h-8l-9-4-1-4z" fill="#F7F7F5"/>
<path transform="translate(1680,1707)" d="m0 0h6l1 4-1 1-9 1-2 1h-6l1-4z" fill="#FEFEFE"/>
<path transform="translate(1398,814)" d="m0 0h2l1 10h1l2 9 1 2h-8z" fill="#F9F8F6"/>
<path transform="translate(595,1113)" d="m0 0h3v3l2 1 1 9 5 13 2 3v17h-1l-1-15-4-7-7-22z" fill="#E9E6DE"/>
<path transform="translate(1366,954)" d="m0 0h3l-3 10-3 6-3 3-12 3h-5l1-2 12-3 5-2z" fill="#E9E6DE"/>
<path transform="translate(1270,830)" d="m0 0h6l1 4-7 2-8 3-1-5z" fill="#EFEFEC"/>
<path transform="translate(1733,1657)" d="m0 0 2 1-3 3-7 1 2 3 9-2h9l1 2h-8l-8 2h-6l-2-2 1-5z" fill="#E8E5DC"/>
<path transform="translate(1392,923)" d="m0 0 5 5 6 5-4 4-7-6-3-5v-2z" fill="#F4F3EF"/>
<path transform="translate(1319,788)" d="m0 0 7 1 16 8 5 4 3 2-5-1-7-3-2-4-9-3-4 1v2l-4-2z" fill="#E8E4DC"/>
<path transform="translate(1172,1138)" d="m0 0h12l10 2h6l6 1 13 2 2 2-14-1-35-5z" fill="#EAE7DF"/>
<path transform="translate(1864,1021)" d="m0 0 2 1v8l-1 1h-7v-7l1-2z" fill="#F0EDE5"/>
<path transform="translate(1775,1006)" d="m0 0 3 2v10l-4 2-2-3v-9z" fill="#F0EDE5"/>
<path transform="translate(1815,1033)" d="m0 0h3l1 2v10l-5 1-1-2v-8z" fill="#F0EDE5"/>
<path transform="translate(748,912)" d="m0 0 2 1-1 3-13 7h-2v2l-5 1-4 1-8 1 3-2 14-5z" fill="#E8E5DD"/>
<path transform="translate(1663,1697)" d="m0 0 4 1-2 2-8 1-2 4 11-2 2 2-9 2h-6l-2-2 1-4 2-2z" fill="#E9E5DD"/>
<path transform="translate(1431,890)" d="m0 0 4 1 3 3v3l-5 2h-7l2-4z" fill="#E97857"/>
<path transform="translate(1764,1677)" d="m0 0v3l-4 1v2l-5 1v3l15-3 2 2-13 3h-5l-2-2 1-5 10-4z" fill="#E6E3DA"/>
<path transform="translate(1447,1107)" d="m0 0h16l13 3 1-2 3 1-4 3-9-1-20-3z" fill="#E9E6DE"/>
<path transform="translate(1404,817)" d="m0 0h4v14h-5v-10z" fill="#301F19"/>
<path transform="translate(1680,1295)" d="m0 0 2 3v5l2 1 2 23 1 7h-2l-5-33z" fill="#D3CFC5"/>
<path transform="translate(1213,1194)" d="m0 0h1v15l-2 7-2 16h-2l1-13z" fill="#E8E5DD"/>
<path transform="translate(1564,1010)" d="m0 0 4 2 2 5 3 3 6 11 1 3h2l2 7-4-4-9-14-7-11z" fill="#D3CFC5"/>
<path transform="translate(1285,792)" d="m0 0 5 2 7 7 1 3-4 2-5-7-5-3z" fill="#331C12"/>
<path transform="translate(1712,1523)" d="m0 0 4 6 2 19 1 5h-3l-4-25z" fill="#D4D0C6"/>
<path transform="translate(1103,1139)" d="m0 0h1l-1 13-3 20h-1v-22l2-6h2z" fill="#EAE7DF"/>
<path transform="translate(292,1585)" d="m0 0h2l-1 17-2 18-4-4h2l1-14 2-13z" fill="#D3CFC5"/>
<path transform="translate(1400,934)" d="m0 0 6 1 8 3-1 3-5 1-8-4-1-2z" fill="#F8F7F4"/>
<path transform="translate(1097,1351)" d="m0 0 4 5 7 9 10 9 3 3-7-2v-2l-4-2-10-12-3-5z" fill="#E8E5DC"/>
<path transform="translate(711,928)" d="m0 0h6l-3 2h-2v2h-30l2-1v-2h20z" fill="#EAE7DF"/>
<path transform="translate(1296,880)" d="m0 0h3l-1 5-5 4-4 2h-3v-2l4-3 1-3z" fill="#EDEAE3"/>
<path transform="translate(1747,1670)" d="m0 0 2 1-8 3v4l6-2h9l-4 2-8 2h-5l-2-2 1-5z" fill="#E8E4DC"/>
<path transform="translate(1440,893)" d="m0 0 6 3v9h2l-1 13h-1l-1-15-3-1z" fill="#FAF9F8"/>
<path transform="translate(548,1082)" d="m0 0 12 2h6l4 3h-15l-7-3z" fill="#EAE7DF"/>
<path transform="translate(1336,799)" d="m0 0 5 2 4 5v3h5l-3 7-4-2v-7l-6-5-3-2z" fill="#E5E2D9"/>
<path transform="translate(1107,1504)" d="m0 0 2 1-9 19-2 1-1-6h2l1-3 2-4h2l1-5z" fill="#EAE7DE"/>
<path transform="translate(1423,819)" d="m0 0 2 1-3 1 1 5-6 5-4-1 2-4z" fill="#E8E5DD"/>
<path transform="translate(1367,794)" d="m0 0h12l6 4v1l-12-1-6-2z" fill="#F8F7F5"/>
<path transform="translate(1616,1563)" d="m0 0 2 2 4 13-1 5-3-1z" fill="#D5D1C8"/>
<path transform="translate(1430,816)" d="m0 0 3 1 1 4-11 4-1-4 5-4z" fill="#ECE9E1"/>
<path transform="translate(1315,688)" d="m0 0 4 1 2 2-8 5-4-1 3-6z" fill="#F4F4F2"/>
<path transform="translate(1464,1297)" d="m0 0h1l2 15v12l-4 3-1-3h2z" fill="#E4E1D8"/>
<path transform="translate(1119,1481)" d="m0 0 1 2-8 16-2 2 1-7 3-8 2-4z" fill="#E9E6DD"/>
<path transform="translate(1441,1283)" d="m0 0 3 1 4 19v7h-1l-5-20z" fill="#E9E6DD"/>
<path transform="translate(1567,1256)" d="m0 0h4v12l-4-2-1-8z" fill="#5D1F08"/>
<path transform="translate(1345,813)" d="m0 0h1l-1 20-2-2-1-11z" fill="#FCFCFB"/>
<path transform="translate(1715,1632)" d="m0 0h1l2 7 7 4 1 3h-3l-5-4-5-2 1-6z" fill="#D3CFC5"/>
<path transform="translate(1445,1255)" d="m0 0 5 1 6 13-3 1-3-5-2-8h-3z" fill="#E9E6DD"/>
<path transform="translate(1658,1168)" d="m0 0 2 1 1 6 2 1 1 7v10h-1l-5-21z" fill="#D3CFC5"/>
<path transform="translate(1138,1440)" d="m0 0 3 1-8 15-3 1 1-6 3-3h2l1-6z" fill="#EAE7DF"/>
<path transform="translate(1345,820)" d="m0 0h1l2 14 3 6-3 4-3-4v-2h2l-2-5z" fill="#E7E3DB"/>
<path transform="translate(1788,1697)" d="m0 0 4 1-5 1 1 4h10v1l-11 2-3-1v-6z" fill="#E8E5DC"/>
<path transform="translate(1645,1677)" d="m0 0h3l2 6h2v2l2 1-1 1h-5l-2-4-2-1z" fill="#A1663A"/>
<path transform="translate(1416,1110)" d="m0 0m-2 1h2v2l-17 6h-3v-3l12-3z" fill="#E8E5DC"/>
<path transform="translate(1634,1666)" d="m0 0 4 2 6 5v1l-9-1-1-1z" fill="#996537"/>
<path transform="translate(670,915)" d="m0 0 3 1-2 4-4 12h-2l2-10z" fill="#EBE8E1"/>
<path transform="translate(1756,1676)" d="m0 0 6 1v3l-10 3v-6z" fill="#EC865E"/>
<path transform="translate(1097,1175)" d="m0 0h2l-3 24-2 2 1-17z" fill="#E0DCD3"/>
<path transform="translate(732,1009)" d="m0 0 3 2-13 13h-2l1-4h2v-2l5-3 2-4h2z" fill="#E7E4DB"/>
<path transform="translate(1266,920)" d="m0 0 5 1-1 4-3 5v8l-3-1 1-9 2-5z" fill="#E9E6DD"/>
<path transform="translate(1340,800)" d="m0 0 5 1 5 4v4h-5l-3-6z" fill="#FDFDFD"/>
<path transform="translate(1807,1699)" d="m0 0 6 2v2l-10 2-5-1 4-2z" fill="#EF8C62"/>
<path transform="translate(1790,1692)" d="m0 0 7 2-1 2-11 2v-4z" fill="#EF8A61"/>
<path transform="translate(1221,1145)" d="m0 0 3 4-1 4h-2l1 5-2 9-2 1 2-16z" fill="#E8E4DC"/>
<path transform="translate(657,919)" d="m0 0h5l-5 24h-1v-8l2-7v-6l1-2z" fill="#E9E6DD"/>
<path transform="translate(1810,1703)" d="m0 0 4 1-5 3-4-1-1 5 2 1-4-1-1-3 2-3z" fill="#EAE7DF"/>
<path transform="translate(1357,1139)" d="m0 0 2 2-12 10h-2l1-4 7-5h2v-2z" fill="#E7E4DB"/>
<path transform="translate(682,1040)" d="m0 0h16l-2 3h-4v2l-5-1-1-2z" fill="#E8E5DD"/>
<path transform="translate(743,1009)" d="m0 0 1 4-5 5h-2l1 3h-3v2l-3-1z" fill="#E5E2D9"/>
<path transform="translate(652,998)" d="m0 0h1l2 11 1 8-1-3h-2v-2h-2v-10z" fill="#E7E4DB"/>
<path transform="translate(1286,960)" d="m0 0 4 1 12 6v2l-6-1-2-2-6-2z" fill="#E8E5DC"/>
<path transform="translate(764,942)" d="m0 0h3l-3 11-4 12-1-4 3-9z" fill="#E7E4DB"/>
<path transform="translate(1455,1270)" d="m0 0 3 3 5 15-1 3-3-5-3-11v-3l-2-1z" fill="#E8E5DC"/>
<path transform="translate(765,897)" d="m0 0 1 3-1 2-4 2-4 5-4 1v2l-3-1 13-12z" fill="#E4E1D8"/>
<path transform="translate(1787,1691)" d="m0 0h7l6 2v2l-4 1-1-2-5-1-5 2-4-1z" fill="#DDDAD1"/>
<path transform="translate(389,1557)" d="m0 0 1 4-3 13-4 2 3-10z" fill="#DBDAD2"/>
<path transform="translate(1716,1553)" d="m0 0h2l2 8v11l-2-2z" fill="#D2CCC1"/>
<path transform="translate(605,1165)" d="m0 0 1 4-2 8-4 7-3 1 2-5 5-12z" fill="#E5E2D9"/>
<path transform="translate(1205,1248)" d="m0 0h1v15l-2 9h-1v-10z" fill="#EBE8E0"/>
<path transform="translate(1459,850)" d="m0 0 5 2-3 9h-2z" fill="#241F1D"/>
<path transform="translate(1396,832)" d="m0 0 1 3h5l-4 5-1 2h-3v-6z" fill="#EEEDE8"/>
<path transform="translate(1705,1718)" d="m0 0h1v5l-4 2 1 5 4 2h-5l-3-5 2-4-3-2 7-1z" fill="#EF9365"/>
<path transform="translate(1768,1690)" d="m0 0h2v5h11v1l-5 1h-8l-1-5z" fill="#E9E6DD"/>
<path transform="translate(1085,1552)" d="m0 0 2 1-6 13h-3l-1-3h3l2-6z" fill="#E8E5DC"/>
<path transform="translate(1449,1318)" d="m0 0h1l1 10 12-1-3 2-2 1h-8l-2-2z" fill="#E9E6DD"/>
<path transform="translate(1288,833)" d="m0 0 5 1 3 2-2 5-5-4z" fill="#E5E2D9"/>
<path transform="translate(1353,800)" d="m0 0h3l-1 4-5 4-2-3-1-2h3v-2z" fill="#EEECE5"/>
<path transform="translate(1331,792)" d="m0 0 6 2 10 7 3 2-5-1-7-3-2-4-5-2z" fill="#E4E1D8"/>
<path transform="translate(1487,1520)" d="m0 0 2 3 5 12-1 2-2-1-3-7-1-1z" fill="#D3CFC5"/>
<path transform="translate(596,1185)" d="m0 0 1 3-2 4h-2l-2 4-5 4 1-4 7-8z" fill="#E7E4DB"/>
<path transform="translate(1638,1130)" d="m0 0 5 2 6 13-3-1z" fill="#D3CFC5"/>
<path transform="translate(751,982)" d="m0 0 1 2-6 11-3 3 1-6 6-9z" fill="#E8E5DC"/>
<path transform="translate(1453,843)" d="m0 0 7 1-1 2 2 4-7-2-2-3z" fill="#E9E6DE"/>
<path transform="translate(1407,834)" d="m0 0h2l1 9-2 6h-1v-13l-2-1z" fill="#D0C2B5"/>
<path transform="translate(1681,1705)" d="m0 0h7l1 1v5h-3v-3h-8z" fill="#EDEAE2"/>
<path transform="translate(1163,1391)" d="m0 0 4 1-7 14-1-4 4-8z" fill="#E6E2DA"/>
<path transform="translate(1719,1719)" d="m0 0 4 1 1 5-1 2h-2l-1-3 1-2h-6v-2z" fill="#E8E5DC"/>
<path transform="translate(1280,1216)" d="m0 0 3 1-8 10-1-4 2-4h2z" fill="#E8E5DC"/>
<path transform="translate(672,1029)" d="m0 0 8 2 5 1 3 1v2l-8-1-8-4z" fill="#E4E1D8"/>
<path transform="translate(1623,1678)" d="m0 0 2 1v3l5 2-4 2-4-2-1-4z" fill="#E6E2D9"/>
<path transform="translate(1595,1061)" d="m0 0 3 3 3 7v6l-2-3-4-10z" fill="#D3CFC5"/>
<path transform="translate(731,922)" d="m0 0h3v3l-5 1-4 1-8 1 3-2z" fill="#E6E2D9"/>
<path transform="translate(1304,849)" d="m0 0 3 4v7l-3-1v-7h-2v-2z" fill="#FDFDFD"/>
<path transform="translate(1654,1687)" d="m0 0 5 1v5l-2 2-4-1h2l1-4-3-2z" fill="#EBE8E0"/>
<path transform="translate(725,1028)" d="m0 0m-2 1 2 1-6 5h-2v2l-4 1-2-2 11-6z" fill="#E7E4DB"/>
<path transform="translate(684,929)" d="m0 0 20 1v1l-22 1 2-1z" fill="#F0EDE5"/>
<path transform="translate(1689,1706)" d="m0 0 2 1-3 9-4 1-2-4 6-2z" fill="#EF8C62"/>
<path transform="translate(1673,1249)" d="m0 0h2l1 2v9l-2 1z" fill="#D4D0C6"/>
<path transform="translate(1320,1171)" d="m0 0 3 1-7 8-4 2 1-4 5-5h2z" fill="#E7E3DB"/>
<path transform="translate(1345,809)" d="m0 0h5l-3 7-4-2 1-4z" fill="#E8E4DC"/>
</svg>
