<?xml version="1.0" encoding="UTF-8"?>
<svg version="1.1" viewBox="0 0 1300 1300" width="1300" height="1300" xmlns="http://www.w3.org/2000/svg">
<path transform="translate(0)" d="m0 0h1300v1300h-1300z" fill="#24A0E0"/>
<path transform="translate(409,176)" d="m0 0h474v40l-1 13h95l5 17 3 17 1 10v36l-3 24-5 21-7 20-11 23-10 16-2 3h-2l-2 5-9 11-18 18-14 11-14 10-19 11-22 11-26 10-12 4-8 17-12 22-13 21-11 16-11 14-7 9h-2l-2 4-18 18-14 11-16 10-10 5-7 2v7l10-2 53-5h16l10 5 8 9 4 13v10l-4 11-7 8-6 4-13 2-21 2h-9v2l42-5h12l12 5 8 8 4 8 1 4v13l-4 10-7 8-9 5-5 2 9 6 6 9 3 9v11l-3 10-6 8-9 6-4 1h-9l5 5 6 7 4 10 1 12-3 12-6 9-8 5-14 2-60 6h-8l1 33 14 5 11 5 30 12 14 5 12 5 15 6 22 9v13h-305v-16l25-10 24-9 46-18 18-7 6-1-1-23h-42l-26-3-27-6-37-11-11-3-1-2v-163l2-3 3-1h10l2-6 9-17 8-17 8-12 8-10 9-10 9-9 13-10 12-8h2l-7-8-13-14-11-14-13-18-13-21-12-22-8-15-3-7-30-11-29-14-20-12-18-13-15-13-12-12-11-14-10-14-10-18-10-25-6-21-4-25v-48l3-20 5-19h96l-1-8z" fill="#FDCD34"/>
<path transform="translate(646,176)" d="m0 0h237v40l-1 13h95l5 17 3 17 1 10v36l-3 24-5 21-7 20-11 23-10 16-2 3h-2l-2 5-9 11-18 18-14 11-14 10-19 11-22 11-26 10-12 4-8 17-12 22-13 21-11 16-11 14-7 9h-2l-2 4-18 18-14 11-16 10-10 5-7 2v7l-28 3h-6v-247z" fill="#DFB858"/>
<path transform="translate(561,625)" d="m0 0 4 2 15 12 13 8 19 9v10l-1 2 23-1 85-9 23-2h16l10 5 8 9 4 13v10l-4 11-7 8-6 4-13 2-21 2h-9v2l42-5h12l12 5 8 8 4 8 1 4v13l-4 10-7 8-9 5-5 2 9 6 6 9 3 9v11l-3 10-6 8-9 6-4 1h-9l5 5 6 7 4 10 1 12-3 12-6 9-8 5-14 2-60 6h-8l1 33 14 5 11 5 30 12 14 5 12 5 15 6 22 9v13h-305v-16l25-10 24-9 46-18 18-7 6-1-1-23h-42l-26-3-27-6-37-11-11-3-1-2v-163l2-3 3-1h10l2-6 9-17 8-17 8-12 8-10 9-10 9-9 13-10z" fill="#FCD3B6"/>
<path transform="translate(0,701)" d="m0 0h287l131 1 6 5 2 6v192l-3 9-5 4h-246l-172-1z" fill="#154F77"/>
<path transform="translate(469 1e3)" d="m0 0 355 1 8 4 5 6 2 5-1 10-7 8-6 3h-6v139l9 1 8 7 3 9-2 9-5 6-9 4h-233l-126-1-8-4-5-6-1-2v-11l4-7 7-5 8-1v-139l-9-1-7-6-3-6v-9l4-7 6-5z" fill="#2A2928"/>
<path transform="translate(0,809)" d="m0 0h223l202 1v100l-4 6-3 2h-246l-172-1z" fill="#0F3653"/>
<path transform="translate(469,1036)" d="m0 0h27l148 1 1 28 80 1 12 4 9 7 7 9 3 9v14l-3 9-7 9-9 7-11 4h-82v37h-175z" fill="#423D3B"/>
<path transform="translate(565,1065)" d="m0 0h80l80 1 12 4 9 7 7 9 3 9v14l-3 9-7 9-9 7-11 4-97 1-67-1-11-4-9-6-7-9-4-10v-14l4-11 9-10 10-6z" fill="#FDCD34"/>
<path transform="translate(677,908)" d="m0 0h1l1 33 14 5 11 5 30 12 14 5 12 5 15 6 22 9v13h-305v-16l25-10 24-9 46-18 18-7 6-1v-24l46-5z" fill="#FDCD35"/>
<path transform="translate(354,273)" d="m0 0h61l8 49 6 30 9 35 5 17 5 16 8 24v3l-6-2-16-9-17-12-15-13-8-8-11-14-7-10-12-24-7-24-4-24v-29z" fill="#25A0DF"/>
<path transform="translate(877,274)" d="m0 0h60l1 1v38l-5 25-6 18-9 19-10 15-8 10-11 12-10 9-15 11-18 11-10 5-2-1 12-35 11-39 7-29 7-35z" fill="#24A0E0"/>
<path transform="translate(645,1066)" d="m0 0h80l12 4 9 7 7 9 3 9v14l-3 9-7 9-9 7-11 4h-81z" fill="#E0B858"/>
<path transform="translate(677,908)" d="m0 0h1l1 33 14 5 11 5 30 12 14 5 12 5 15 6 22 9v13h-153v-82l1-5-4-1z" fill="#DFB858"/>
<path transform="translate(645 1e3)" d="m0 0h179l8 4 5 6 2 5-1 10-7 8-6 3h-180z" fill="#111112"/>
<path transform="translate(645,1176)" d="m0 0h180l7 4 5 6 2 8-3 9-4 5-6 3h-181z" fill="#111"/>
<path transform="translate(426,715)" d="m0 0h20l7 3 5 6 1 3v164l-2 8-4 5-8 3-19-1z" fill="#AED1C7"/>
<path transform="translate(811,593)" d="m0 0 4 2 4 11 3 10 2 7 1 16 1 8-1 15-13 15-4 6-5 5-13 15-11 13-2 3-3-1h-12l-35 4h-7v-2l40-4 8-4 7-8 4-11v-10l-4-13-5-7 12-21 16-27z" fill="#5EBBE8"/>
<path transform="translate(508,558)" d="m0 0 4 4 10 16 13 17 11 13 11 12 4 4v2l-18 12-13 11-4 2-7-12-12-21-14-24-1-4 3-9 1-7 4-2 1-3h2l1-5 3-4z" fill="#5EBBE8"/>
<path transform="translate(745,608)" d="m0 0 1 3-17 46-1 1-46 5h-3v-7l11-5 13-7 14-10 13-11z" fill="#5FBBE8"/>
<path transform="translate(330,877)" d="m0 0h10l6 4 4 7v7l-3 6-6 5-7 1-7-2-6-7-1-3v-7l3-6 5-4z" fill="#AED1C7"/>
<path transform="translate(371,877)" d="m0 0h9l6 4 4 6v10l-5 7-7 3-9-1-6-5-3-8 2-9 5-5z" fill="#AED1C7"/>
<path transform="translate(480,664)" d="m0 0 1 2h2l9 11 8 9-9 20-3 6-3-4-5-22-1-20z" fill="#5DBAE8"/>
<path transform="translate(689,652)" d="m0 0 1 4-1 6-10 1v-7z" fill="#28A1E0"/>
<path transform="translate(1e3 574)" d="m0 0 3 2 2 6-1 4v-2h-2l-4-8z" fill="#5EBBE9"/>
<path transform="translate(490,976)" d="m0 0h8l4 1 1 4h-4v-2l-8-1z" fill="#5EBAE7"/>
<path transform="translate(967,480)" d="m0 0 4 4 1 5-4 3z" fill="#5EBBE9"/>
</svg>
